<svg width="80" height="80" viewBox="0 0 80 80" fill="none" xmlns="http://www.w3.org/2000/svg">
<rect width="80" height="80" rx="40" fill="white" fill-opacity="0.5"/>
<mask id="mask0_566_2214" style="mask-type:alpha" maskUnits="userSpaceOnUse" x="0" y="0" width="80" height="80">
<rect width="80" height="80" rx="40" fill="#D9D9D9"/>
</mask>
<g mask="url(#mask0_566_2214)">
<path d="M61.6927 70.1533C54.9129 60.9364 53.2734 54.0681 27.7496 79.2815L22.9639 84.6878H62.4903C62.4903 84.6878 64.0672 85.4603 65.149 84.6878C69.2257 81.7768 61.6927 70.1533 61.6927 70.1533Z" fill="#2C343E"/>
<path d="M26.0596 21.4951C31.7843 22.1013 46.2646 24.7683 58.3876 30.5874C41.577 31.8805 29.8312 25.0647 26.0596 21.4951Z" fill="#32007D"/>
<path d="M54.3718 30.1537C54.1059 25.8554 55.258 18.3667 59.9108 18.1895C60.8413 20.6266 54.7706 21.6015 54.3718 30.1537Z" stroke="#004396" stroke-width="0.5"/>
<path d="M66.6462 24.5704C65.76 22.7093 59.2904 24.792 55.6568 30.331H56.0556C59.3347 27.0962 66.8678 26.8303 66.6462 24.5704Z" stroke="#004396" stroke-width="0.5"/>
<path d="M40.6613 23.8153C39.5535 23.0915 37.1164 21.7769 36.2301 22.3086C35.3439 22.8404 38.815 23.5347 40.6613 23.8153Z" fill="#24A5EE"/>
<path d="M40.6613 25.8093C39.5535 25.0856 37.1164 23.7709 36.2301 24.3027C35.3439 24.8345 38.815 25.5287 40.6613 25.8093Z" fill="#24A5EE"/>
<path d="M40.6613 22.3086C39.5535 21.5848 37.1164 20.2702 36.2301 20.802C35.3439 21.3338 38.815 22.028 40.6613 22.3086Z" fill="#24A5EE"/>
<path d="M40.2182 20.4476C39.1104 19.7238 36.6732 18.4091 35.787 18.9409C34.9008 19.4727 38.3719 20.1669 40.2182 20.4476Z" fill="#24A5EE"/>
<path d="M39.7308 18.6751C38.623 17.9513 36.1858 16.6367 35.2996 17.1684C34.4133 17.7002 37.8844 18.3944 39.7308 18.6751Z" fill="#24A5EE"/>
<path d="M39.332 17.1684C38.2242 16.4446 35.787 15.13 34.9008 15.6618C34.0145 16.1936 37.4856 16.8878 39.332 17.1684Z" fill="#24A5EE"/>
<path d="M38.7559 15.5289C37.6481 14.8051 35.2109 13.4905 34.3247 14.0223C33.4385 14.554 36.9096 15.2483 38.7559 15.5289Z" fill="#24A5EE"/>
<path d="M38.1799 14.0218C37.072 13.298 34.6349 11.9834 33.7486 12.5152C32.8624 13.0469 36.3335 13.7412 38.1799 14.0218Z" fill="#24A5EE"/>
<path d="M37.8254 13.0009C36.7176 12.2771 34.4576 10.5637 33.5714 11.0954C32.6851 11.6272 36.0529 12.6021 37.8254 13.0009Z" fill="#24A5EE"/>
<path d="M37.1607 11.6104C36.6204 11.0793 34.2718 8.73037 33.3498 8.99621C32.3567 9.28255 35.4768 10.9458 37.1607 11.6104Z" fill="#24A5EE"/>
<path d="M40.8829 26.2499C41.7544 24.772 43.6125 21.9319 44.0734 22.3947C44.5342 22.8576 42.1384 25.1577 40.8829 26.2499Z" fill="#24A5EE"/>
<path d="M40.7943 28.4212C41.6657 26.9433 43.5239 24.1032 43.9847 24.566C44.4456 25.0289 42.0498 27.329 40.7943 28.4212Z" fill="#24A5EE"/>
<path d="M40.7943 22.1288C41.6657 20.6509 43.3023 18.0767 43.7632 18.5396C44.224 19.0024 42.0498 21.0366 40.7943 22.1288Z" fill="#24A5EE"/>
<path d="M40.4398 20.4476C41.3112 18.9697 42.9921 16.3042 43.453 16.7671C43.9138 17.2299 41.6953 19.3554 40.4398 20.4476Z" fill="#24A5EE"/>
<path d="M40.0853 18.7168C40.9567 17.2389 42.682 14.5317 43.1428 14.9946C43.6037 15.4574 41.3408 17.6246 40.0853 18.7168Z" fill="#24A5EE"/>
<path d="M39.5978 17.0773C40.4693 15.5994 41.8843 12.8036 42.3452 13.2664C42.806 13.7293 40.8534 15.9851 39.5978 17.0773Z" fill="#24A5EE"/>
<path d="M39.0661 15.4656C39.9376 13.9877 41.0867 11.0311 41.5476 11.4939C42.0084 11.9568 40.3216 14.3734 39.0661 15.4656Z" fill="#24A5EE"/>
<path d="M38.49 13.8425C39.3615 12.3646 40.3334 9.56877 40.7943 10.0316C41.2551 10.4945 39.7455 12.7503 38.49 13.8425Z" fill="#24A5EE"/>
<path d="M38.0469 12.8513C38.49 11.1837 38.7825 7.8849 39.2433 8.34775C39.7042 8.8106 39.2433 11.6104 38.0469 12.8513Z" fill="#24A5EE"/>
<path d="M37.3379 11.4937C37.2493 9.72115 37.1429 6.51098 37.6038 6.97383C38.0646 7.43668 38.0469 10.2529 37.3379 11.4937Z" fill="#24A5EE"/>
<path d="M21.3195 12.7372C25.5292 18.0547 31.1657 16.8228 31.3784 24.3027C22.4451 20.5095 21.098 16.2379 21.3195 12.7372Z" fill="#24A5EE"/>
<path d="M40.8829 24.0786C41.7544 22.6007 43.6125 19.7606 44.0734 20.2234C44.5342 20.6863 42.1384 22.9864 40.8829 24.0786Z" fill="#24A5EE"/>
<path d="M59.0509 10.1643C63.4378 19.1153 52.2711 24.9202 52.6699 29.7945C46.8207 22.439 57.7215 15.7919 59.0509 10.1643Z" fill="#24A5EE"/>
<path d="M52.6116 29.8823C50.1744 20.6654 60.3662 16.8103 59.1698 10.4736C59.1698 17.9624 49.3325 20.3996 52.6116 29.8823Z" fill="#004396"/>
<path d="M48.0872 25.9403C49.5939 25.4234 52.6868 24.611 52.8286 25.32C52.9084 25.7188 49.712 26.0142 48.0872 25.9403Z" fill="#AC73E5"/>
<path d="M48.5304 23.9463C50.037 23.4293 53.13 22.6169 53.2718 23.3259C53.3515 23.7247 50.1551 24.0201 48.5304 23.9463Z" fill="#AC73E5"/>
<path d="M49.0621 22.484C50.5687 21.967 53.6617 21.1546 53.8035 21.8636C53.8833 22.2624 50.6869 22.5578 49.0621 22.484Z" fill="#AC73E5"/>
<path d="M49.6825 20.7115C51.1891 20.1945 54.2821 19.3821 54.4239 20.0911C54.5036 20.4899 51.3073 20.7854 49.6825 20.7115Z" fill="#AC73E5"/>
<path d="M50.3029 19.072C51.8095 18.555 54.9025 17.7426 55.0443 18.4516C55.124 18.8504 51.9276 19.1458 50.3029 19.072Z" fill="#AC73E5"/>
<path d="M51.0562 17.6097C52.5628 17.0927 55.6558 16.2803 55.7976 16.9893C55.8773 17.3881 52.6809 17.6835 51.0562 17.6097Z" fill="#AC73E5"/>
<path d="M51.8095 16.1917C53.3161 15.6747 56.4091 14.8623 56.5509 15.5713C56.6306 15.9701 53.4342 16.2655 51.8095 16.1917Z" fill="#AC73E5"/>
<path d="M52.74 14.7737C54.2466 14.2567 57.3396 13.4443 57.4814 14.1533C57.5612 14.5521 54.3648 14.8475 52.74 14.7737Z" fill="#AC73E5"/>
<path d="M53.2275 13.8431C54.6454 13.2228 57.6498 12.1593 57.7916 12.8683C57.8714 13.2671 54.8227 13.7102 53.2275 13.8431Z" fill="#AC73E5"/>
<path d="M54.0694 12.6024C55.3544 11.7161 58.1816 10.1652 58.3233 10.8742C58.4031 11.273 55.5317 12.2036 54.0694 12.6024Z" fill="#AC73E5"/>
<path d="M47.5112 28.3332C46.3148 26.9595 44.6309 24.5814 45.074 24.2122C45.3931 23.9463 46.8465 26.5607 47.5112 28.3332Z" fill="#AC73E5"/>
<path d="M47.8214 26.0733C46.6249 24.6996 44.9411 22.3215 45.3842 21.9522C45.7033 21.6864 47.1567 24.3008 47.8214 26.0733Z" fill="#AC73E5"/>
<path d="M48.1759 24.0792C46.9794 22.7056 45.3399 20.1945 45.783 19.8253C46.1021 19.5594 47.5112 22.3067 48.1759 24.0792Z" fill="#AC73E5"/>
<path d="M48.7076 22.3067C47.5112 20.9331 45.8633 18.2996 46.4034 18.0971C46.7579 17.9642 48.0429 20.5343 48.7076 22.3067Z" fill="#AC73E5"/>
<path d="M49.328 20.7115C48.1316 19.3378 46.5806 16.9597 47.0238 16.5905C47.3428 16.3246 48.6633 18.939 49.328 20.7115Z" fill="#AC73E5"/>
<path d="M49.9927 19.072C48.7962 17.6983 47.1124 15.3202 47.5555 14.9509C47.8746 14.6851 49.328 17.2995 49.9927 19.072Z" fill="#AC73E5"/>
<path d="M50.7017 17.4767C49.5052 16.103 48.3531 13.592 48.7962 13.2228C49.1153 12.9569 50.037 15.7042 50.7017 17.4767Z" fill="#AC73E5"/>
<path d="M51.4993 16.0144C50.3915 14.5078 49.5495 12.1297 49.9927 11.7605C50.3117 11.4946 51.0562 14.1533 51.4993 16.0144Z" fill="#AC73E5"/>
<path d="M52.4298 14.5964C51.2334 13.2228 50.299 10.5124 50.8346 10.2982C51.2777 10.1209 51.8981 12.7796 52.4298 14.5964Z" fill="#AC73E5"/>
<path d="M53.0059 13.6659C52.3412 12.2036 52.1632 9.0131 52.74 9.0131C53.1388 9.0131 53.0945 11.9377 53.0059 13.6659Z" fill="#AC73E5"/>
<path d="M53.8478 12.6024C53.582 11.0515 53.98 7.9053 54.5568 7.9053C54.9999 7.9053 54.4239 10.8742 53.8478 12.6024Z" fill="#AC73E5"/>
<path d="M47.6884 28.1559C49.1951 27.639 52.2437 26.7823 52.3855 27.4913C52.5273 28.2003 49.3132 28.2298 47.6884 28.1559Z" fill="#AC73E5"/>
<path d="M27.2162 6.13281C29.3875 12.691 39.2248 17.9198 33.5529 25.896C33.5529 20.2684 23.0509 15.527 27.2162 6.13281Z" fill="#AC73E5"/>
<path d="M41.4982 9.23148C41.0108 21.0185 45.442 25.0066 44.8659 28.7288C45.1318 24.3419 37.9533 20.5311 41.4982 9.23148Z" fill="#2C343E"/>
<path d="M46.9929 7.459C40.9222 17.4292 45.8851 24.8737 45.8851 28.9504C46.0675 23.5392 44.2897 22.4464 45.9738 12.998C46.2535 11.4284 46.8157 9.71892 46.9929 7.459Z" fill="#2C343E"/>
<path d="M46.9929 23.3671C46.9929 18.9802 51.4242 12.5549 50.3164 6.39551C48.8692 16.1442 46.0958 12.3776 46.8157 27.1779C46.86 27.8426 46.7271 28.5959 46.7714 29.1719C47.0904 28.3212 46.9929 25.5384 46.9929 23.3671Z" fill="#2C343E"/>
<path d="M66.2244 20.088C66.8005 23.3227 57.7165 23.4114 55.0134 29.6594C54.7158 30.262 54.5349 30.1173 54.4817 29.9696C55.0134 23.7659 64.0088 17.4735 66.2244 20.088Z" fill="#2C343E"/>
<path d="M56.0326 30.5013C60.9513 30.2798 63.61 32.2295 64.0974 29.8809C64.1417 28.0641 58.2482 28.7731 56.0326 30.5013Z" fill="#2C343E"/>
<path d="M61.8711 18.5813C61.8711 18.8966 61.6209 19.1516 61.3058 19.1574C60.9847 19.1634 60.719 18.9025 60.719 18.5813C60.719 18.2602 60.9847 17.9993 61.3058 18.0053C61.6209 18.0111 61.8711 18.2661 61.8711 18.5813Z" fill="#2C343E"/>
<path d="M44.6748 8.70607C44.6748 9.2879 44.2129 9.75859 43.6311 9.76938C43.0383 9.78036 42.5479 9.29879 42.5479 8.70607C42.5479 8.11335 43.0383 7.63178 43.6311 7.64276C44.2129 7.65355 44.6748 8.12424 44.6748 8.70607Z" stroke="#24A5EE"/>
<path d="M19.8614 19.1582C19.8614 19.74 19.3994 20.2107 18.8176 20.2215C18.2249 20.2325 17.7344 19.7509 17.7344 19.1582C17.7344 18.5655 18.2249 18.0839 18.8176 18.0949C19.3994 18.1057 19.8614 18.5764 19.8614 19.1582Z" stroke="#AC73E5"/>
<path d="M67.2725 16.1465C67.2725 16.7283 66.8105 17.199 66.2287 17.2098C65.636 17.2208 65.1455 16.7392 65.1455 16.1465C65.1455 15.5538 65.636 15.0722 66.2287 15.0832C66.8105 15.094 67.2725 15.5647 67.2725 16.1465Z" stroke="#2B468B"/>
<path d="M22.5193 20.7998C22.5193 21.115 22.2691 21.37 21.9539 21.3758C21.6329 21.3818 21.3672 21.1209 21.3672 20.7998C21.3672 20.4787 21.6329 20.2178 21.9539 20.2237C22.2691 20.2296 22.5193 20.4846 22.5193 20.7998Z" fill="#24A5EE"/>
<path d="M41.3523 6.51366C41.3523 6.82887 41.1021 7.08387 40.7869 7.08972C40.4659 7.09567 40.2002 6.83477 40.2002 6.51366C40.2002 6.19255 40.4659 5.93165 40.7869 5.9376C41.1021 5.94344 41.3523 6.19844 41.3523 6.51366Z" fill="#AC73E5"/>
<path d="M40.7289 27.9789C41.5709 22.3069 38.1588 13.6956 36.4307 10.1211C38.2622 12.9423 41.6152 20.8446 40.9948 27.9789H40.7289Z" fill="#004396"/>
<path d="M55.0521 11.2695C52.8365 14.076 48.2103 21.5943 47.4304 29.2159C47.1823 22.3387 52.4081 14.3862 55.0521 11.2695Z" fill="#004396"/>
<path d="M26.0121 21.376C21.2264 23.2903 21.6843 26.7821 22.5114 28.2887L31.5954 33.6061L33.5451 41.0063L40.768 48.5393C43.8699 59.3515 53.1311 59.1299 51.1814 55.6293C51.3586 55.8065 51.8549 56.1433 52.4221 56.0724C50.561 50.9322 59.1576 47.2986 58.6701 37.5056C61.1516 41.2721 60.0438 32.1881 58.4486 30.4157C39.2348 28.6077 28.8185 23.6359 26.0121 21.376Z" fill="#2C343E"/>
<path d="M21.2637 13.1093C22.432 17.6027 29.6154 17.9842 30.6972 23.9188C28.4037 17.6027 22.1724 17.8994 21.2637 13.1093Z" fill="#004396"/>
<path d="M27.3652 7.08984C27.3652 14.381 36.4092 16.5853 34.0292 25.3177C35.3707 15.5255 26.6295 14.2962 27.3652 7.08984Z" fill="#004396"/>
<path d="M19.2844 38.2131L13.125 43.5748C14.4012 46.3399 16.9949 47.3561 18.1323 47.5186L18.3538 51.9498C19.8161 52.5702 21.8634 53.7577 18.3538 53.545C18.3538 64.4458 23.8472 61.8757 30.4954 60.9452C30.5246 60.9304 30.5551 60.9157 30.584 60.9009L36.3889 70.8711C45.3931 62.824 51.4255 61.6099 53.3161 62.0087L50.746 57.5331C46.3148 58.4194 43.2868 51.3738 42.3267 47.7402C49.5496 48.2719 49.9484 37.5041 44.9854 36.6621C41.0151 35.9886 39.8452 40.9604 39.7566 43.5305L36.8763 43.3533C36.8409 41.2617 37.0388 38.7596 37.1422 37.7699C34.4834 37.4154 33.9074 34.3727 33.9517 32.8956C30.4067 32.931 29.5796 30.163 29.6091 28.7746C26.4186 30.0862 24.4394 27.8145 23.8485 26.5146C21.0126 29.0316 19.6241 35.3623 19.2844 38.2131Z" fill="#FFC5B9"/>
<path d="M30.5412 46.2348C30.5412 47.7857 28.7244 48.2288 26.6861 48.2288C24.6059 48.2288 22.9639 46.7587 22.9639 45.4372C22.9639 44.1156 24.6059 43.3545 26.6861 43.3545C29.3448 43.5317 30.5412 44.6839 30.5412 46.2348Z" fill="#FFB3A3"/>
<path d="M19.6398 46.9239C19.817 46.7467 19.7137 45.4911 19.6398 44.8855C20.3133 45.7718 20.0977 46.9387 19.9057 47.4113L17.7344 46.3922C18.5852 46.4276 19.3592 46.7614 19.6398 46.9239Z" fill="#2C343E"/>
<path d="M26.198 39.0807C22.6973 41.6508 21.0578 40.5873 20.659 40.2328C20.7653 40.091 21.2941 39.9669 21.5452 39.9226L22.4758 36.5549L21.944 39.7897C22.3281 39.7601 23.1848 39.7188 23.5393 39.7897C23.8938 39.8606 25.4595 39.3465 26.198 39.0807Z" fill="#2C343E"/>
<path d="M20.3045 32.744L20.9692 30.8829C23.17 30.6761 27.8996 31.7426 29.2112 37.6627C26.8715 32.9124 22.2985 32.4043 20.3045 32.744Z" fill="#2C343E"/>
<path d="M32.0915 63.4966L30.6292 60.8379C32.0472 60.188 35.5833 57.9754 38.3838 54.324C37.4267 57.55 33.7901 61.7832 32.0915 63.4966Z" fill="#2C343E"/>
<path d="M43.3025 44.3981C43.267 45.0717 42.3424 45.8013 41.8845 46.082C43.9228 44.9299 43.7013 44.6197 43.657 44.2209C43.6215 43.9018 42.5492 42.9654 42.0174 42.537C43.0809 36.3688 46.0498 37.7513 47.069 39.7897C45.2079 35.0039 41.3971 38.8148 41.3971 42.7586C42.7087 43.7866 43.2139 44.28 43.3025 44.3981Z" fill="#2C343E"/>
<rect x="0.5" y="0.5" width="79" height="79" rx="39.5" stroke="#C0C3C6"/>
</g>
</svg>
