<svg width="16" height="15" viewBox="0 0 16 15" fill="none" xmlns="http://www.w3.org/2000/svg">
<path d="M15.1495 5.02037L10.6253 4.63542L8.8586 0.556801C8.54079 -0.1856 7.45648 -0.1856 7.13866 0.556801L5.37198 4.64459L0.857128 5.02037C0.0345461 5.08453 -0.301965 6.09273 0.324319 6.62433L3.75486 9.53894L2.72663 13.865C2.53968 14.6533 3.409 15.2765 4.11941 14.8549L7.99863 12.5635L11.8779 14.8641C12.5883 15.2857 13.4576 14.6624 13.2706 13.8742L12.2424 9.53894L15.6729 6.62433C16.2992 6.09273 15.9721 5.08453 15.1495 5.02037ZM7.99863 10.8496V2.32573L9.59706 6.02857L13.6913 6.37686L10.5879 9.01651L11.5226 12.9393L7.99863 10.8496Z" fill="white"/>
</svg>
