<svg width="32" height="32" viewBox="0 0 32 32" fill="none" xmlns="http://www.w3.org/2000/svg">
<rect width="32" height="32" rx="4" fill="#3A685A"/>
<path d="M4 4V5.37658L6.85022 8.28378L8.10436 7.02649L5.13565 4.00005L4 4ZM7.30221 4.17703C7.07664 4.18159 6.87854 4.22258 6.70497 4.2906L12.5888 10.1889C12.7349 9.81462 12.7446 9.31611 12.5815 8.71644C12.3487 7.86074 11.7682 6.86429 10.8949 5.98885C10.0215 5.11331 9.02742 4.5313 8.17388 4.29799C7.8538 4.21043 7.5617 4.17172 7.30221 4.17703ZM4.11712 6.88514C3.97102 7.25935 3.96123 7.7578 4.12434 8.35737C4.35708 9.21307 4.93765 10.2096 5.81104 11.0851C6.68443 11.9607 7.67837 12.5425 8.53192 12.7759C9.13016 12.9394 9.62744 12.9297 10.0008 12.7833L4.11707 6.88514H4.11712ZM9.52253 8.45201L8.27475 9.70292L14.3099 15.7531L15.5578 14.5022L9.52253 8.45201ZM28 11.315C27.6079 11.4528 27.2089 11.6281 26.8206 11.8528C25.7942 12.4468 25.0155 13.2262 24.5939 13.96C24.3045 14.4639 24.193 14.9179 24.2298 15.2943L28 13.1205V11.315H28ZM15.0218 11.9157C14.7964 11.9203 14.5983 11.9613 14.4248 12.0294L18.1414 15.7553C18.679 15.4937 19.2201 15.3012 19.7458 15.1804C19.4559 14.6882 19.0767 14.191 18.6145 13.7277C17.7411 12.8521 16.747 12.2701 15.8935 12.0368C15.5734 11.9493 15.2813 11.9105 15.0218 11.9157ZM11.8576 14.6029C11.7115 14.9771 11.7019 15.4756 11.865 16.0753C12.0978 16.9309 12.6783 17.9274 13.5517 18.803C13.8752 19.1273 14.2153 19.411 14.5586 19.6519C14.6369 19.263 14.7953 18.8705 15.0138 18.495C15.0999 18.347 15.1966 18.2003 15.3016 18.0552L11.8576 14.6029ZM27.2081 14.6367L20.1217 18.7453L20.9509 20.2003L27.9117 16.1704V15.8606L27.2081 14.6367ZM21.0095 15.9731C20.1618 15.9769 19.0956 16.2686 18.0683 16.8632C17.0411 17.4577 16.2558 18.2375 15.8287 18.9715C15.5364 19.474 15.4217 19.926 15.4556 20.3005L22.344 16.3137C22.0374 16.097 21.5897 15.9705 21.0094 15.9731H21.0095ZM28 17.1693L25.9965 18.3301C26.1595 18.447 26.3615 18.5391 26.6134 18.5994C26.9936 18.6901 27.4728 18.6968 28 18.6149V17.1693ZM24.1974 19.3781L17.3089 23.3651C17.6155 23.5818 18.0633 23.7082 18.6436 23.7056C19.4912 23.7018 20.5576 23.41 21.5849 22.8155C22.6121 22.221 23.3973 21.4413 23.8244 20.7072C24.1168 20.2047 24.2314 19.7527 24.1974 19.3781V19.3781ZM18.0099 19.9174L17.4704 20.2295L17.4685 20.2276L16.8259 20.5996L16.8304 20.6L10.9259 24.0174L11.7575 25.4613L18.8415 21.3613L18.0099 19.9174V19.9174ZM25.0269 20.2999C24.9391 20.5983 24.8068 20.896 24.6394 21.1837C24.5128 21.4013 24.3648 21.6164 24.198 21.8269L27.6691 25.3065C27.8151 24.9323 27.8248 24.4338 27.6617 23.8342C27.4289 22.9786 26.8484 21.9821 25.9751 21.1066C25.6816 20.8121 25.3644 20.5423 25.0269 20.2999L25.0269 20.2999ZM11.9976 21.2401C11.15 21.2439 10.0838 21.5357 9.0565 22.1302C8.02924 22.7247 7.244 23.5046 6.8169 24.2385C6.52459 24.741 6.40989 25.193 6.44382 25.5675L13.3322 21.5808C13.0256 21.364 12.5779 21.2375 11.9976 21.2402L11.9976 21.2401ZM24.6067 23.5825L23.3613 24.8118L26.5161 28H27.9117V26.8954L24.6067 23.5825ZM21.2685 24.0371C20.7326 24.2765 20.196 24.4475 19.6775 24.547C19.9782 25.0981 20.393 25.6612 20.9122 26.1817C21.7855 27.0572 22.7795 27.6393 23.6331 27.8726C24.2313 28.0362 24.7286 28.0264 25.102 27.88L21.2685 24.0371ZM15.11 24.6485L9.32811 27.995H12.6508C13.6081 27.4086 14.3423 26.6635 14.746 25.9608C15.0311 25.4644 15.143 25.0184 15.11 24.6485ZM9.31165 25.0101L4.13666 28H7.44099L10.1365 26.4382L9.31165 25.0101Z" fill="white"/>
</svg>
