<svg width="32" height="32" viewBox="0 0 32 32" fill="none" xmlns="http://www.w3.org/2000/svg">
<rect width="32" height="32" rx="4" fill="#676767"/>
<path d="M16.0415 4C12.6896 4 9.82383 6.10615 8.62235 8.70864C7.60189 10.4267 7 12.489 7 14.6571C7 18.38 8.04018 21.746 9.69051 24.1547C11.3409 26.5633 13.5704 28 16 28C18.4297 28.0001 20.6591 26.5633 22.3095 24.1547C23.9598 21.7461 25 18.3799 25 14.6571C25 12.5488 24.4687 10.5839 23.5577 8.93397C22.4213 6.22895 19.4894 4 16.0413 4H16.0415ZM16.0415 4.94202C19.733 4.94202 22.7795 7.98202 23.0849 10.8685H16.1752L15.8583 9.72793L15.3998 8.07538L14.9413 9.72783L14.4064 11.6545L13.5483 8.56527L13.0882 6.91281L12.6297 8.56527L11.9944 10.8496H8.99804C9.31493 7.96876 12.358 4.94197 16.0414 4.94197L16.0415 4.94202ZM13.0881 10.4699L13.9463 13.5575L14.4064 15.2101L14.8649 13.5575L15.3998 11.6293L15.4508 11.8104H23.0832C22.7792 14.616 19.7905 16.9035 16.0413 16.9035C12.2839 16.9035 9.28746 14.6058 8.99488 11.7916H12.7203L12.8174 11.445L13.0881 10.4699ZM9.43114 17.4974C10.3663 18.4097 11.343 18.8451 12.2698 18.8852C13.1966 18.9255 14.1002 18.578 14.9254 17.8014L15.5814 18.4851C14.6026 19.4063 13.4274 19.8793 12.2268 19.8273C11.0264 19.7754 9.82725 19.2056 8.76246 18.1669L9.43119 17.4975L9.43114 17.4974ZM22.9193 17.4974L23.588 18.1669C22.5233 19.2056 21.324 19.7753 20.1236 19.8273C18.9232 19.8793 17.748 19.4063 16.7691 18.4851L17.425 17.8015C18.2502 18.578 19.1554 18.9255 20.0821 18.8853C21.0089 18.8451 21.9841 18.4097 22.9193 17.4975L22.9193 17.4974ZM16.1481 24.2902C17.4959 24.2868 18.8442 24.4508 20.1905 24.7958L19.9516 25.708C17.4141 25.0576 14.8874 25.0829 12.3414 25.7095L12.1106 24.7958C13.4527 24.4655 14.8004 24.2935 16.1482 24.2902H16.1481Z" fill="white"/>
</svg>
