<svg width="32" height="32" viewBox="0 0 32 32" fill="none" xmlns="http://www.w3.org/2000/svg">
<rect width="32" height="32" rx="4" fill="#3F4776"/>
<path d="M15.2402 4L14.1487 4.26748L4.49425 6.63652L4 6.75708L4.14492 7.25738L6.96378 16.9798L7.28091 18.0778L7.84115 17.0872L9.72788 13.7522L11.7547 14.9491L12.2377 14.0939L9.79222 12.651L9.37541 12.4051L9.13555 12.8309L7.56914 15.603L5.21228 7.47526L13.281 5.49569L11.7178 8.26112L11.4762 8.69042L11.8948 8.9364L19.9233 13.6746L19.017 15.2777L19.8526 15.7697L20.9988 13.7423L21.2403 13.3131L20.8217 13.0671L12.7932 8.32885L14.6784 4.9956L15.2402 4ZM13.7849 13.323L10.8259 18.5697L18.8222 23.298L19.2392 23.5441L18.9975 23.9717L16.7277 28L28 25.2264L24.7095 13.8429L22.4379 17.8713L22.198 18.2973L21.7811 18.0513L13.7848 13.323L13.7849 13.323Z" fill="white"/>
</svg>
