<svg width="32" height="32" viewBox="0 0 32 32" fill="none" xmlns="http://www.w3.org/2000/svg">
<rect width="32" height="32" rx="4" fill="#594C6D"/>
<path d="M18.3705 4L15.2645 5.78903L15.691 6.48612L17.6159 5.37724L17.0581 8.83938L17.4026 9.40044L20.6234 7.54419L20.1969 6.8471L18.1572 8.01897L18.7095 4.55841L18.3705 4ZM10.2939 5.79856C8.38852 6.82462 6.80062 8.32439 5.69419 10.143C4.58775 11.9616 4.00289 14.0332 4 16.1437C4 19.2882 5.2905 22.3039 7.58759 24.5274C9.88469 26.7509 13.0002 28 16.2488 28C18.8972 27.9987 21.4738 27.1665 23.5924 25.6282C25.711 24.0899 27.2575 21.9284 28 19.4677C26.939 20.5554 25.6601 21.4224 24.2414 22.0157C22.8227 22.6091 21.2939 22.9163 19.7485 22.9187C16.7319 22.9187 13.8389 21.7588 11.7059 19.6941C9.57289 17.6295 8.37457 14.8292 8.37457 11.9093C8.37649 9.73356 9.04438 7.60715 10.2939 5.79856ZM23.6637 8.55356L23.2864 9.4269L25.6979 10.4008L21.9631 12.301L21.6623 12.9997L25.6924 14.6299L26.0697 13.7566L23.5161 12.7244L27.2509 10.8243L27.5516 10.1256L23.6637 8.55356ZM17.3753 11.9411L12.0273 13.7936L12.4703 14.9951L15.784 13.8465L13.8483 19.0284L14.2037 19.9864L19.7485 18.0704L19.3055 16.8688L15.7949 18.0862L17.7307 12.9044L17.3753 11.9411Z" fill="white"/>
</svg>
