<svg width="32" height="32" viewBox="0 0 32 32" fill="none" xmlns="http://www.w3.org/2000/svg">
<rect width="32" height="32" rx="4" fill="#7B497C"/>
<path d="M15.1723 6.00006C14.9649 6.00045 14.7576 6.00508 14.5504 6.01397C14.1051 6.09128 13.8995 6.28168 13.7879 6.49961C13.6649 6.73989 13.6697 7.06321 13.8069 7.3507C13.9441 7.63835 14.1958 7.8735 14.5472 7.96132C14.8987 8.04914 15.3825 8.00375 16.0185 7.60672L16.5268 8.38381C15.7277 8.88262 14.9546 9.01421 14.3136 8.85401C13.6727 8.6938 13.1971 8.25587 12.9513 7.74078C12.7198 7.25548 12.6773 6.68611 12.8993 6.18049C10.7314 6.5229 8.76844 7.33492 7.26064 8.4778C6.7651 9.00513 6.71661 9.61802 6.93382 10.0366C7.1778 10.5066 7.75265 10.8497 8.90235 10.4945L9.18805 11.3733C7.74436 11.8194 6.55441 11.3443 6.09256 10.4544C5.97991 10.2375 5.91111 10.0027 5.88409 9.76056C5.64091 10.0424 5.42138 10.3357 5.22741 10.641L5.23377 10.6439C4.79864 11.6117 4.78874 12.2821 4.96221 12.7177C5.13577 13.1534 5.49942 13.4302 6.05937 13.5827C7.17916 13.8876 8.99246 13.5197 10.2694 12.5883C10.8159 12.1896 11.334 11.2227 11.3791 10.4729C11.4016 10.0979 11.3203 9.80166 11.1597 9.61249C10.999 9.42333 10.7418 9.28177 10.2093 9.28715L10.1999 8.36521C10.9317 8.35781 11.5259 8.59976 11.8858 9.02358C12.2457 9.4474 12.3536 9.99319 12.3215 10.5268C12.2573 11.5942 11.6853 12.7062 10.8345 13.3268C9.3253 14.4278 7.33202 14.8862 5.8068 14.4709C5.10021 14.2785 4.47475 13.8598 4.15247 13.2113C3.67026 15.4535 4.37084 17.5363 5.70416 18.9777C5.87843 19.1661 6.06392 19.3443 6.25829 19.5095C6.11918 19.1204 6.05543 18.7152 6.07038 18.3208C6.09715 17.614 6.37761 16.9223 6.94023 16.4445C7.40163 16.0524 8.03901 15.8263 8.80132 15.8277C8.85214 15.8277 8.90406 15.8286 8.95599 15.8307C9.0747 15.8356 9.19659 15.8457 9.3207 15.8616L9.19745 16.7759C8.41004 16.6749 7.89899 16.851 7.55898 17.1398C7.21902 17.4286 7.03146 17.8608 7.01277 18.3548C6.97539 19.3427 7.62247 20.4964 9.01767 20.831L9.01605 20.8403C10.3896 21.0963 11.9224 20.8586 13.4613 19.9413C13.4622 19.9407 13.4635 19.9405 13.4644 19.9398C13.7847 19.7203 13.9572 19.5053 14.0422 19.32C14.1425 19.1013 14.1403 18.9109 14.069 18.7063C13.9263 18.2973 13.4153 17.8768 12.9466 17.7596C12.1888 17.5702 11.7074 17.8305 11.4817 18.1405C11.256 18.4504 11.2423 18.7548 11.5907 19.0193L11.0113 19.747C10.2946 19.2027 10.2489 18.2428 10.713 17.6055C11.0611 17.1275 11.672 16.8 12.4084 16.779C12.4395 16.778 12.4705 16.7775 12.5016 16.7776C12.7191 16.779 12.9456 16.8082 13.1803 16.8669C13.9635 17.0627 14.6877 17.6206 14.9625 18.4087C15.0358 18.62 15.0679 18.8428 15.0572 19.0656C15.9013 18.6443 16.7915 18.2703 17.6982 17.9893C19.2215 17.3094 19.8819 16.1175 19.8562 15.1139C19.8301 14.1028 19.19 13.2518 17.7156 13.1094L17.8087 12.192C19.6609 12.3709 20.7619 13.6647 20.7985 15.0907C20.8199 15.9215 20.5079 16.7861 19.8798 17.5221C20.6917 17.4333 21.4985 17.4483 22.2807 17.6024C22.1215 17.283 22.0443 16.9374 22.0551 16.594C22.0893 15.5067 23.0361 14.4925 24.5239 14.477C24.6256 14.4761 24.7272 14.4797 24.8285 14.4878L24.7528 15.4067C23.4936 15.3082 23.0201 15.9537 22.999 16.6232C22.9782 17.2854 23.4307 18.0265 24.7276 18.1249C26.1572 18.1372 27.182 17.38 27.6842 16.2547C28.3565 14.7481 28.0376 12.4893 25.9241 10.4234C25.8841 10.3843 25.8444 10.3448 25.8041 10.3062C25.7819 10.4902 25.7336 10.6703 25.6606 10.8413C25.2943 11.6993 24.4365 12.2784 23.5453 12.4402C22.316 12.6633 21.308 12.1764 20.8428 11.4334C20.3776 10.6905 20.4997 9.63992 21.3368 9.08684L21.8657 9.85159C21.4155 10.149 21.3969 10.5517 21.6478 10.9523C21.8987 11.3531 22.4646 11.7001 23.3732 11.5352C23.9443 11.4315 24.5803 10.9762 24.7891 10.4868C24.8937 10.2421 24.9139 10.0002 24.8097 9.7235C24.7251 9.49876 24.5477 9.24176 24.2177 8.97109L24.2082 8.96344C22.8284 7.9477 21.3624 7.21719 19.8767 6.73545C19.8776 6.73703 19.8789 6.73841 19.8798 6.74004C20.2175 7.34296 20.2425 8.02689 20.0346 8.63188C19.6187 9.84192 18.3136 10.7953 16.699 10.7426C16.3481 10.7312 16.0141 10.8965 15.7299 11.2191C15.4456 11.5416 15.2381 12.0141 15.19 12.5173C15.0937 13.5238 15.5397 14.6332 17.2784 15.1816L16.9877 16.0589C14.9124 15.4045 14.117 13.8118 14.2488 12.4325C14.3148 11.743 14.5875 11.1023 15.0144 10.6179C15.4414 10.1335 16.0487 9.79869 16.7304 9.82075C17.9448 9.86032 18.8683 9.12586 19.1393 8.33748C19.2747 7.94336 19.2572 7.55117 19.0509 7.18271C18.8504 6.8249 18.4533 6.47109 17.7422 6.2129C16.8936 6.06894 16.0337 5.99772 15.1723 6.00006ZM20.2852 18.4304C18.1679 18.5986 15.872 19.5849 13.9568 20.7277C11.1291 22.415 8.15328 22.0466 6.04189 20.5165C6.87254 23.4198 9.81589 24.0091 12.8865 23.2748C13.1938 23.162 13.4957 22.9522 13.7532 22.6812C14.1097 22.3059 14.368 21.8193 14.4493 21.4169L15.3759 21.5958C15.2524 22.2067 14.9173 22.8128 14.4462 23.3088C13.9941 23.7847 13.4051 24.1649 12.7239 24.2647C12.3822 25.0082 12.1009 25.7291 11.9867 26.2336C11.8074 27.026 12.7043 27.3302 13.1059 26.5311C14.0668 24.6196 15.423 22.9181 17.117 21.4509C18.4336 20.6046 19.5622 19.5611 20.2853 18.4304H20.2852Z" fill="white"/>
</svg>
