<svg width="69" height="69" viewBox="0 0 69 69" fill="none" xmlns="http://www.w3.org/2000/svg">
<rect width="69" height="69" rx="34.5" fill="white" fill-opacity="0.5"/>
<mask id="mask0_428_683" style="mask-type:alpha" maskUnits="userSpaceOnUse" x="0" y="0" width="69" height="69">
<rect width="69" height="69" rx="34.5" fill="#D9D9D9"/>
</mask>
<g mask="url(#mask0_428_683)">
<path d="M53.2102 60.5065C47.3627 52.557 45.9486 46.6331 23.9343 68.3797L19.8066 73.0425H53.8982C53.8982 73.0425 55.2582 73.7088 56.1913 73.0425C59.7075 70.5318 53.2102 60.5065 53.2102 60.5065Z" fill="#2C343E"/>
<path d="M22.4756 18.5381C27.4132 19.0609 39.9024 21.3612 50.3585 26.3802C35.8594 27.4955 25.7286 21.6168 22.4756 18.5381Z" fill="#32007D"/>
<path d="M46.8942 26.0057C46.6649 22.2984 47.6586 15.8394 51.6716 15.6865C52.4742 17.7886 47.2382 18.6294 46.8942 26.0057Z" stroke="#004396" stroke-width="0.5"/>
<path d="M57.4809 21.1901C56.7165 19.5849 51.1365 21.3812 48.0025 26.1586H48.3465C51.1747 23.3686 57.672 23.1393 57.4809 21.1901Z" stroke="#004396" stroke-width="0.5"/>
<path d="M35.0731 20.5403C34.1176 19.916 32.0155 18.7821 31.2512 19.2408C30.4868 19.6994 33.4806 20.2982 35.0731 20.5403Z" fill="#24A5EE"/>
<path d="M35.0731 22.2601C34.1176 21.6359 32.0155 20.502 31.2512 20.9606C30.4868 21.4193 33.4806 22.0181 35.0731 22.2601Z" fill="#24A5EE"/>
<path d="M35.0731 19.2408C34.1176 18.6165 32.0155 17.4826 31.2512 17.9413C30.4868 18.3999 33.4806 18.9987 35.0731 19.2408Z" fill="#24A5EE"/>
<path d="M34.6909 17.6356C33.7354 17.0113 31.6333 15.8775 30.869 16.3361C30.1046 16.7948 33.0984 17.3936 34.6909 17.6356Z" fill="#24A5EE"/>
<path d="M34.2705 16.1068C33.315 15.4826 31.2129 14.3487 30.4485 14.8073C29.6842 15.266 32.678 15.8648 34.2705 16.1068Z" fill="#24A5EE"/>
<path d="M33.9265 14.8073C32.971 14.1831 30.869 13.0492 30.1046 13.5079C29.3402 13.9665 32.334 14.5653 33.9265 14.8073Z" fill="#24A5EE"/>
<path d="M33.4296 13.3933C32.4742 12.769 30.3721 11.6351 29.6077 12.0938C28.8433 12.5524 31.8372 13.1512 33.4296 13.3933Z" fill="#24A5EE"/>
<path d="M32.9328 12.0934C31.9773 11.4691 29.8753 10.3352 29.1109 10.7939C28.3465 11.2526 31.3403 11.8513 32.9328 12.0934Z" fill="#24A5EE"/>
<path d="M32.627 11.2128C31.6716 10.5886 29.7224 9.11073 28.958 9.56939C28.1936 10.0281 31.0983 10.8689 32.627 11.2128Z" fill="#24A5EE"/>
<path d="M32.0538 10.0136C31.5877 9.55545 29.5621 7.52952 28.7669 7.7588C27.9104 8.00577 30.6014 9.44029 32.0538 10.0136Z" fill="#24A5EE"/>
<path d="M35.2642 22.6401C36.0158 21.3654 37.6185 18.9158 38.016 19.315C38.4134 19.7142 36.347 21.6981 35.2642 22.6401Z" fill="#24A5EE"/>
<path d="M35.1877 24.5128C35.9394 23.2381 37.542 20.7885 37.9395 21.1878C38.337 21.587 36.2706 23.5708 35.1877 24.5128Z" fill="#24A5EE"/>
<path d="M35.1877 19.0857C35.9394 17.811 37.3509 15.5907 37.7484 15.9899C38.1459 16.3892 36.2706 18.1437 35.1877 19.0857Z" fill="#24A5EE"/>
<path d="M34.882 17.6356C35.6336 16.3609 37.0834 14.062 37.4809 14.4612C37.8784 14.8604 35.9649 16.6936 34.882 17.6356Z" fill="#24A5EE"/>
<path d="M34.5762 16.1428C35.3279 14.8681 36.8159 12.5332 37.2133 12.9324C37.6108 13.3316 35.6591 15.2008 34.5762 16.1428Z" fill="#24A5EE"/>
<path d="M34.1558 14.7287C34.9075 13.454 36.1279 11.0426 36.5254 11.4419C36.9229 11.8411 35.2387 13.7867 34.1558 14.7287Z" fill="#24A5EE"/>
<path d="M33.6972 13.3387C34.4488 12.064 35.44 9.51387 35.8375 9.91308C36.2349 10.3123 34.7801 12.3966 33.6972 13.3387Z" fill="#24A5EE"/>
<path d="M33.2003 11.9387C33.952 10.664 34.7902 8.25264 35.1877 8.65185C35.5852 9.05106 34.2832 10.9967 33.2003 11.9387Z" fill="#24A5EE"/>
<path d="M32.8181 11.0838C33.2003 9.64553 33.4526 6.8003 33.8501 7.19951C34.2475 7.59872 33.8501 10.0136 32.8181 11.0838Z" fill="#24A5EE"/>
<path d="M32.2066 9.9129C32.1302 8.38407 32.0385 5.61529 32.4359 6.0145C32.8334 6.4137 32.8181 8.8427 32.2066 9.9129Z" fill="#24A5EE"/>
<path d="M18.3908 10.9854C22.0216 15.5718 26.8831 14.5092 27.0665 20.9606C19.3615 17.6891 18.1997 14.0048 18.3908 10.9854Z" fill="#24A5EE"/>
<path d="M35.2642 20.7673C36.0158 19.4927 37.6185 17.0431 38.016 17.4423C38.4134 17.8415 36.347 19.8253 35.2642 20.7673Z" fill="#24A5EE"/>
<path d="M50.934 8.76626C54.7177 16.4865 45.0865 21.4933 45.4305 25.6974C40.3855 19.3532 49.7875 13.6201 50.934 8.76626Z" fill="#24A5EE"/>
<path d="M45.3789 25.7732C43.2769 17.8236 52.0673 14.4986 51.0354 9.0332C51.0354 15.4923 42.5507 17.5943 45.3789 25.7732Z" fill="#004396"/>
<path d="M41.4767 22.375C42.7762 21.9291 45.4439 21.2284 45.5662 21.8399C45.635 22.1839 42.8781 22.4387 41.4767 22.375Z" fill="#AC73E5"/>
<path d="M41.8589 20.6551C43.1583 20.2093 45.8261 19.5086 45.9484 20.1201C46.0171 20.464 43.2603 20.7188 41.8589 20.6551Z" fill="#AC73E5"/>
<path d="M42.3175 19.3939C43.617 18.948 46.2847 18.2473 46.407 18.8588C46.4758 19.2028 43.7189 19.4576 42.3175 19.3939Z" fill="#AC73E5"/>
<path d="M42.8526 17.8651C44.1521 17.4192 46.8197 16.7186 46.9421 17.3301C47.0108 17.674 44.254 17.9288 42.8526 17.8651Z" fill="#AC73E5"/>
<path d="M43.3877 16.451C44.6871 16.0051 47.3548 15.3045 47.4771 15.916C47.5459 16.2599 44.789 16.5147 43.3877 16.451Z" fill="#AC73E5"/>
<path d="M44.0374 15.1898C45.3368 14.7439 48.0045 14.0432 48.1268 14.6547C48.1956 14.9987 45.4388 15.2535 44.0374 15.1898Z" fill="#AC73E5"/>
<path d="M44.6871 13.9668C45.9866 13.5209 48.6543 12.8202 48.7766 13.4317C48.8454 13.7757 46.0885 14.0305 44.6871 13.9668Z" fill="#AC73E5"/>
<path d="M45.4897 12.7438C46.7892 12.2979 49.4569 11.5972 49.5792 12.2087C49.648 12.5527 46.8911 12.8075 45.4897 12.7438Z" fill="#AC73E5"/>
<path d="M45.9101 11.9412C47.1331 11.4061 49.7244 10.4888 49.8467 11.1003C49.9155 11.4443 47.286 11.8265 45.9101 11.9412Z" fill="#AC73E5"/>
<path d="M46.6363 10.871C47.7447 10.1066 50.183 8.76896 50.3053 9.38047C50.3741 9.72445 47.8975 10.527 46.6363 10.871Z" fill="#AC73E5"/>
<path d="M40.9799 24.4388C39.9479 23.254 38.4956 21.203 38.8778 20.8845C39.153 20.6551 40.4066 22.9101 40.9799 24.4388Z" fill="#AC73E5"/>
<path d="M41.2474 22.4897C40.2155 21.3049 38.7631 19.2538 39.1453 18.9353C39.4205 18.706 40.6741 20.9609 41.2474 22.4897Z" fill="#AC73E5"/>
<path d="M41.5531 20.7698C40.5212 19.585 39.1071 17.4192 39.4893 17.1008C39.7645 16.8714 40.9799 19.241 41.5531 20.7698Z" fill="#AC73E5"/>
<path d="M42.0118 19.241C40.9799 18.0562 39.5585 15.7849 40.0244 15.6102C40.3301 15.4955 41.4385 17.7123 42.0118 19.241Z" fill="#AC73E5"/>
<path d="M42.5468 17.8651C41.5149 16.6803 40.1773 14.6292 40.5594 14.3108C40.8346 14.0814 41.9736 16.3364 42.5468 17.8651Z" fill="#AC73E5"/>
<path d="M43.1201 16.451C42.0882 15.2662 40.6359 13.2151 41.0181 12.8966C41.2933 12.6673 42.5468 14.9223 43.1201 16.451Z" fill="#AC73E5"/>
<path d="M43.7316 15.0751C42.6997 13.8903 41.706 11.7246 42.0882 11.4061C42.3634 11.1768 43.1583 13.5464 43.7316 15.0751Z" fill="#AC73E5"/>
<path d="M44.4196 13.8139C43.4641 12.5144 42.7379 10.4634 43.1201 10.1449C43.3953 9.91554 44.0374 12.2087 44.4196 13.8139Z" fill="#AC73E5"/>
<path d="M45.2222 12.5909C44.1903 11.4061 43.3844 9.06839 43.8463 8.88362C44.2285 8.73075 44.7636 11.0239 45.2222 12.5909Z" fill="#AC73E5"/>
<path d="M45.719 11.7883C45.1457 10.527 44.9922 7.77526 45.4897 7.77526C45.8337 7.77526 45.7955 10.2977 45.719 11.7883Z" fill="#AC73E5"/>
<path d="M46.4452 10.871C46.2159 9.53335 46.5592 6.81978 47.0567 6.81978C47.4389 6.81978 46.9421 9.38047 46.4452 10.871Z" fill="#AC73E5"/>
<path d="M41.1327 24.286C42.4322 23.8401 45.0617 23.1012 45.184 23.7127C45.3063 24.3242 42.5341 24.3497 41.1327 24.286Z" fill="#AC73E5"/>
<path d="M23.4754 5.29102C25.3482 10.9475 33.8328 15.4573 28.9408 22.3368C28.9408 17.4829 19.8828 13.3935 23.4754 5.29102Z" fill="#AC73E5"/>
<path d="M35.7914 7.96361C35.371 18.1299 39.1929 21.5696 38.6961 24.7801C38.9254 20.9964 32.7339 17.7095 35.7914 7.96361Z" fill="#2C343E"/>
<path d="M40.5306 6.43484C35.2946 15.0342 39.5751 21.455 39.5751 24.9712C39.7325 20.304 38.1991 19.3615 39.6516 11.2122C39.8929 9.85849 40.3777 8.38402 40.5306 6.43484Z" fill="#2C343E"/>
<path d="M40.5306 20.1555C40.5306 16.3718 44.3525 10.83 43.3971 5.51758C42.1489 13.9258 39.7568 10.6772 40.3777 23.4424C40.416 24.0157 40.3013 24.6654 40.3395 25.1623C40.6147 24.4284 40.5306 22.0283 40.5306 20.1555Z" fill="#2C343E"/>
<path d="M57.1178 17.3273C57.6146 20.1173 49.7797 20.1938 47.4483 25.5827C47.1916 26.1024 47.0356 25.9776 46.9897 25.8502C47.4483 20.4995 55.2068 15.0724 57.1178 17.3273Z" fill="#2C343E"/>
<path d="M48.3273 26.3088C52.5697 26.1177 54.8628 27.7994 55.2832 25.7738C55.3215 24.2068 50.2383 24.8183 48.3273 26.3088Z" fill="#2C343E"/>
<path d="M53.3631 16.0279C53.3631 16.2997 53.1473 16.5197 52.8754 16.5247C52.5985 16.5298 52.3694 16.3048 52.3694 16.0279C52.3694 15.7509 52.5985 15.5259 52.8754 15.531C53.1473 15.5361 53.3631 15.756 53.3631 16.0279Z" fill="#2C343E"/>
<path d="M38.5328 7.5071C38.5328 8.00893 38.1343 8.41491 37.6325 8.42421C37.1213 8.43368 36.6982 8.01832 36.6982 7.5071C36.6982 6.99589 37.1213 6.58053 37.6325 6.59C38.1343 6.5993 38.5328 7.00528 38.5328 7.5071Z" stroke="#24A5EE"/>
<path d="M17.1285 16.5266C17.1285 17.0285 16.73 17.4344 16.2282 17.4437C15.717 17.4532 15.2939 17.0379 15.2939 16.5266C15.2939 16.0154 15.717 15.6001 16.2282 15.6095C16.73 15.6188 17.1285 16.0248 17.1285 16.5266Z" stroke="#AC73E5"/>
<path d="M58.024 13.9261C58.024 14.4279 57.6255 14.8339 57.1237 14.8432C56.6125 14.8526 56.1895 14.4373 56.1895 13.9261C56.1895 13.4148 56.6125 12.9995 57.1237 13.0089C57.6255 13.0182 58.024 13.4242 58.024 13.9261Z" stroke="#FFC897" stroke-opacity="0.5"/>
<path d="M19.4214 17.9413C19.4214 18.2131 19.2056 18.4331 18.9338 18.4381C18.6569 18.4433 18.4277 18.2182 18.4277 17.9413C18.4277 17.6643 18.6569 17.4393 18.9338 17.4444C19.2056 17.4495 19.4214 17.6694 19.4214 17.9413Z" fill="#24A5EE"/>
<path d="M35.6656 5.61803C35.6656 5.8899 35.4498 6.10984 35.1779 6.11488C34.901 6.12001 34.6719 5.89499 34.6719 5.61803C34.6719 5.34107 34.901 5.11605 35.1779 5.12118C35.4498 5.12622 35.6656 5.34616 35.6656 5.61803Z" fill="#AC73E5"/>
<path d="M35.1291 24.1318C35.8553 19.2398 32.9124 11.8125 31.4219 8.72949C33.0016 11.1628 35.8935 17.9785 35.3585 24.1318H35.1291Z" fill="#004396"/>
<path d="M47.4844 9.72168C45.5734 12.1422 41.5833 18.6268 40.9107 25.2005C40.6967 19.2688 45.204 12.4098 47.4844 9.72168Z" fill="#004396"/>
<path d="M22.4343 18.4375C18.3066 20.0886 18.7015 23.1002 19.4149 24.3997L27.2499 28.986L28.9315 35.3686L35.1613 41.8659C37.8366 51.1914 45.8244 51.0003 44.1428 47.981C44.2957 48.1338 44.7237 48.4243 45.2129 48.3631C43.6077 43.9297 51.0222 40.7957 50.6018 32.3493C52.7421 35.5979 51.7866 27.763 50.4107 26.2342C33.8389 24.6749 24.8548 20.3867 22.4343 18.4375Z" fill="#2C343E"/>
<path d="M18.3418 11.305C19.3495 15.1806 25.5451 15.5096 26.4782 20.6283C24.5001 15.1806 19.1256 15.4365 18.3418 11.305Z" fill="#004396"/>
<path d="M23.6043 6.11328C23.6043 12.4019 31.4048 14.3031 29.3521 21.8348C30.5091 13.3891 22.9698 12.3288 23.6043 6.11328Z" fill="#004396"/>
<path d="M16.6328 32.96L11.3203 37.5845C12.421 39.9694 14.6581 40.8459 15.6391 40.986L15.8302 44.8079C17.0914 45.343 18.8571 46.3673 15.8302 46.1838C15.8302 55.5858 20.5682 53.369 26.3022 52.5664C26.3275 52.5537 26.3538 52.541 26.3787 52.5282L31.3854 61.1275C39.1515 54.1869 44.3545 53.1397 45.9851 53.4837L43.7684 49.6236C39.9465 50.388 37.3349 44.3111 36.5068 41.1771C42.7365 41.6358 43.0805 32.3485 38.7999 31.6223C35.3755 31.0414 34.3665 35.3296 34.2901 37.5463L31.8058 37.3934C31.7752 35.5895 31.9459 33.4314 32.0351 32.5778C29.742 32.272 29.2451 29.6477 29.2833 28.3737C26.2258 28.4043 25.5124 26.0168 25.5379 24.8193C22.7861 25.9506 21.079 23.9912 20.5694 22.8701C18.1233 25.041 16.9258 30.5012 16.6328 32.96Z" fill="#77453A"/>
<path d="M26.3421 39.8778C26.3421 41.2155 24.7751 41.5977 23.0171 41.5977C21.2229 41.5977 19.8066 40.3297 19.8066 39.1899C19.8066 38.05 21.2229 37.3936 23.0171 37.3936C25.3102 37.5464 26.3421 38.5401 26.3421 39.8778Z" fill="#543B36"/>
<path d="M16.9374 40.4699C17.0902 40.317 17.0011 39.2342 16.9374 38.7118C17.5183 39.4762 17.3323 40.4827 17.1667 40.8903L15.2939 40.0113C16.0278 40.0419 16.6953 40.3298 16.9374 40.4699Z" fill="#2C343E"/>
<path d="M22.5938 33.7051C19.5745 35.9218 18.1604 35.0046 17.8164 34.6988C17.9081 34.5765 18.3642 34.4695 18.5808 34.4313L19.3834 31.5266L18.9248 34.3166C19.256 34.2911 19.9949 34.2555 20.3007 34.3166C20.6064 34.3778 21.9568 33.9344 22.5938 33.7051Z" fill="#2C343E"/>
<path d="M17.5107 28.2398L18.0839 26.6346C19.9822 26.4562 24.0614 27.376 25.1927 32.4821C23.1747 28.385 19.2305 27.9468 17.5107 28.2398Z" fill="#2C343E"/>
<path d="M27.677 54.7639L26.4157 52.4707C27.6388 51.9102 30.6886 50.0018 33.1041 46.8525C32.2786 49.6349 29.142 53.2861 27.677 54.7639Z" fill="#2C343E"/>
<path d="M37.3464 38.2914C37.3159 38.8724 36.5184 39.5017 36.1234 39.7438C37.8815 38.7501 37.6904 38.4825 37.6522 38.1385C37.6216 37.8634 36.6967 37.0557 36.2381 36.6862C37.1553 31.3661 39.716 32.5585 40.5951 34.3166C38.9899 30.1889 35.703 33.4758 35.703 36.8773C36.8343 37.764 37.27 38.1895 37.3464 38.2914Z" fill="#2C343E"/>
<rect x="0.5" y="0.5" width="68" height="68" rx="34" stroke="#C0C3C6"/>
</g>
</svg>
