<svg width="32" height="32" viewBox="0 0 32 32" fill="none" xmlns="http://www.w3.org/2000/svg">
<rect width="32" height="32" rx="4" fill="#7E3737"/>
<path d="M15.1006 4C13.7904 4 12.6052 4.67538 11.9 5.75538C11.725 5.93538 11.595 6.16051 11.46 6.38513C9.35459 2.33538 4.13218 3.82 4.00215 8.09231C3.87213 12.641 9.66464 13.8154 11.46 18.3128C12.8202 14.7128 16.6409 13.0923 18.2211 10.4359C18.7462 9.7641 19.1313 8.89744 19.0063 8.00513C18.6712 5.6241 17.276 4.01538 15.1006 4ZM20.5365 13.6872C19.1763 17.2872 15.3556 18.9077 13.7754 21.5641C13.2503 22.2359 12.8652 23.1026 12.9902 23.9949C13.3253 26.3744 14.7205 27.9846 16.8959 28C18.2061 28 19.3913 27.3231 20.0965 26.2462C20.2715 26.0667 20.4015 25.841 20.5365 25.6154C22.6419 29.6667 27.8628 28.1795 27.9978 23.9077C28.1279 19.359 22.3319 18.1846 20.5365 13.6872Z" fill="white"/>
</svg>
