<svg width="32" height="32" viewBox="0 0 32 32" fill="none" xmlns="http://www.w3.org/2000/svg">
<rect width="32" height="32" rx="4" fill="#6D4C4C"/>
<path d="M15.6994 4.00008C15.6787 4.00018 15.6619 4.00008 15.6482 4.0016C14.4627 4.13648 13.4597 5.03355 13.0482 6.26437L18.4286 5.34718C17.8554 4.52604 16.9648 4.00324 15.9701 4.00324C15.8543 4.00324 15.7614 3.99967 15.6994 4.00003L15.6994 4.00008ZM18.8798 6.23569L12.8572 7.26131C12.8522 7.34294 12.8482 7.42488 12.8482 7.50809C12.8482 8.12516 12.9965 8.69978 13.2497 9.20082L19.0873 7.67533C19.0897 7.62014 19.0918 7.56404 19.0918 7.50819C19.0918 7.05724 19.0156 6.62921 18.8797 6.23584L18.8798 6.23569ZM18.8994 8.70386L13.8241 10.0302C13.8342 10.0413 13.8439 10.0529 13.8542 10.0637L14.4828 10.7277L13.6061 10.8709C13.0729 10.9588 12.6308 11.1514 12.2527 11.4331L20.8723 12.5048C20.7503 12.2968 20.6165 12.1044 20.4692 11.9315C19.9692 11.3444 19.3259 10.952 18.4001 10.8264L17.5113 10.707L18.1324 10.0239C18.4748 9.64741 18.7364 9.19714 18.8994 8.70381L18.8994 8.70386ZM11.4436 12.2914C11.0993 12.7913 10.8281 13.405 10.6196 14.094L18.8361 13.2102L11.4436 12.2915L11.4436 12.2914ZM21.4512 13.887L10.3729 15.0781C10.1477 16.1739 10.0441 17.3742 10 18.5382L21.937 17.07C21.8787 16.0865 21.7668 15.1186 21.5506 14.2516C21.52 14.1293 21.4868 14.0077 21.4512 13.887V13.887ZM21.9791 18.0239L10.5669 19.4284L19.5248 20.5955L19.5428 20.3615L19.5759 19.922H22C21.9997 19.3106 21.9977 18.6698 21.979 18.0239L21.9791 18.0239ZM12.582 20.6496L12.8858 24.2389L19.1625 25.4156L19.4542 21.5461L12.582 20.6497V20.6496ZM12.97 25.2229L13.2061 28H18.9671L19.0903 26.3694L12.97 25.2229Z" fill="white"/>
</svg>
