<svg width="32" height="32" viewBox="0 0 32 32" fill="none" xmlns="http://www.w3.org/2000/svg">
<rect width="32" height="32" rx="4" fill="#487145"/>
<path d="M27.1488 4C26.1647 5.33008 25.2597 6.53462 24.0274 7.5762C23.2358 8.19355 22.451 8.84099 21.5839 9.35301C20.5178 9.81788 18.1612 10.0028 17.2487 11.0617C17.0398 11.3934 17.0131 12.1342 17.2272 13.0532C17.3376 13.5272 17.5021 14.0428 17.6979 14.5696C19.3047 14.143 20.9057 13.7788 22.3095 13.1308C24.3713 11.8878 26.3889 10.5342 27.9999 8.87286V4H27.1488ZM21.0934 4.68193C19.3968 4.67044 17.7582 5.17766 16.4304 5.93467C13.9382 7.35571 12.6189 9.48173 12.5219 11.5705C12.7318 14.828 14.6956 18.2622 15.8902 21.2565C16.0187 21.7622 16.0145 22.1019 15.9603 22.3114C15.9062 22.521 15.8369 22.6804 15.4601 22.9661C14.6241 23.5999 13.6279 23.8817 12.6778 23.8999C11.5862 24.9079 10.4869 25.8147 9.72768 27.0683C12.2111 27.9938 15.23 27.6959 17.6531 25.8591C18.5629 25.1693 19.2164 24.2209 19.4751 23.2197C19.7338 22.2183 19.6327 21.2444 19.4086 20.3625C18.7516 18.9574 18.021 17.5979 17.4886 16.4331C17.0151 15.3894 16.5802 14.2763 16.3433 13.2592C16.1638 12.4889 16.0751 11.7607 16.2394 11.14L16.2288 11.1425C16.3899 10.4781 16.8545 9.87168 18.2285 9.0883C19.0294 8.6316 20.4086 8.33417 21.5173 8.38872C21.5203 8.38887 21.5231 8.38923 21.5261 8.38933C22.6922 7.48545 23.8137 6.66798 24.7695 5.65807C24.4473 5.4584 24.1121 5.29252 23.7713 5.16566C22.8869 4.83627 21.9822 4.68793 21.0934 4.68188L21.0934 4.68193ZM27.5046 10.5738C26.2038 11.7523 24.7043 12.7499 23.2878 13.6057C23.1074 13.8506 22.8693 14.0805 22.5578 14.32C21.1553 15.2539 19.8364 15.7267 18.3703 16.1771C19.014 17.5794 19.7203 18.8348 20.0793 19.4509C21.714 18.8816 23.5611 18.1109 24.7705 17.198C25.9239 16.3112 26.9149 15.0293 27.2543 13.4087C27.4679 12.3888 27.5505 11.4439 27.5046 10.5737V10.5738ZM11.7367 12.6672C10.1219 13.4344 8.58617 14.4948 7.38395 16.0425C5.90185 17.9506 5.22193 19.9175 5.38076 21.7435C5.43077 22.3197 5.56681 22.8671 5.77136 23.3775C6.87889 22.03 8.3318 20.477 9.45203 19.5065C9.64282 19.1296 9.90279 18.7177 10.251 18.2694C10.8755 17.4654 11.7559 16.829 12.7776 16.303C12.3829 15.218 12.0122 13.9978 11.7368 12.6672H11.7367ZM13.4073 17.8966C13.0869 18.0529 12.7746 18.2216 12.474 18.4073C10.0642 19.8991 7.84338 22.2415 6.09103 24.4276C5.30175 25.491 4.60988 26.5706 4 27.6193V28H8.04798C8.79975 26.8593 9.57244 25.6382 10.4495 24.7373C11.6349 23.5385 13.0701 22.3115 14.3813 21.4961C14.5354 21.4009 14.7196 21.3068 14.9255 21.213C14.3786 19.9437 13.8359 18.9145 13.4072 17.8966L13.4073 17.8966Z" fill="white"/>
</svg>
