<svg width="32" height="32" viewBox="0 0 32 32" fill="none" xmlns="http://www.w3.org/2000/svg">
<rect width="32" height="32" rx="4" fill="#AE5E45"/>
<path d="M12.4769 4L12.1109 4.89972L11.6639 5.99627L10.4879 5.83276L9.52366 5.69951L10.0106 6.54063L10.9128 8.09887L11.0289 8.30047L11.2596 8.33215L12.5931 8.51781L16.1494 14.6607C16.4742 14.5757 16.7991 14.5032 17.1232 14.4464L13.4045 8.02118L13.8946 6.81515L13.9822 6.59933L13.8661 6.39926L12.9638 4.84112L12.4769 4ZM19.5322 4.44585L18.8352 5.12346L17.984 5.94864L16.9736 5.3282L16.1446 4.81878L16.2511 5.78523L16.4484 7.5736L16.4739 7.80374L16.6728 7.92591L17.7851 8.60829L18.4152 14.3004C18.6183 14.2904 18.8196 14.2858 19.0182 14.2893C19.1371 14.2915 19.2545 14.2965 19.3715 14.3036L18.7318 8.5274L19.6962 7.59274L19.8632 7.43086L19.8377 7.19915L19.6404 5.41077L19.5322 4.44585ZM8.14416 7.51017L8.06457 8.4782L7.96915 9.65883L6.79805 9.85561L5.83856 10.0159L6.55619 10.6729L7.88631 11.8883L8.05663 12.0454L8.28728 12.0074L9.61277 11.7836L13.7307 15.5508C13.8205 15.5076 13.9105 15.465 14.0012 15.4238C14.2261 15.322 14.4538 15.2262 14.6838 15.1366L10.2382 11.0679L10.3431 9.77146L10.3623 9.5397L10.1904 9.38264L8.86179 8.16712L8.14416 7.51017ZM25.0758 13.7561C24.1652 13.7514 23.0975 14.2152 22.2276 15.0828C21.967 15.3427 21.7355 15.63 21.537 15.9397C20.9464 15.5847 20.2445 15.376 19.4828 15.2954L19.4813 15.2827C19.3214 15.2702 19.1611 15.2628 19.0007 15.2605C18.9798 15.2602 18.9582 15.2606 18.9371 15.2605C13.549 15.1093 5.91173 20.6945 12.4229 25.5752H6.34768L5 28H18.0953L13.5891 22.7569C14.8249 21.4007 17.024 20.5376 18.5281 20.4687C19.2304 22.7587 20.3746 26.232 22.1814 28H25.2795C23.0865 25.6363 21.3824 22.4604 21.1074 18.8675C21.1897 19.0324 21.2983 19.183 21.4288 19.3134C22.3792 20.2611 24.2774 19.9033 25.6692 18.5151C27.0612 17.127 27.4184 15.2339 26.4681 14.2861C26.1117 13.9307 25.6221 13.7591 25.0758 13.7561Z" fill="white"/>
</svg>
