<svg width="32" height="32" viewBox="0 0 32 32" fill="none" xmlns="http://www.w3.org/2000/svg">
<rect width="32" height="32" rx="4" fill="#7B9255"/>
<path d="M8.97927 4C6.03523 4.83693 4.0001 6.60816 4 8.66319C3.99985 10.7107 6.02117 12.4843 8.94754 13.3249C7.23875 12.2129 6.14364 10.5342 6.14374 8.66319C6.14374 6.78149 7.25317 5.11188 8.97927 4ZM23.0206 4C24.7468 5.11188 25.8562 6.78149 25.8562 8.66319C25.8564 10.5342 24.7613 12.2129 23.0525 13.3249C25.9788 12.4843 28.0002 10.7107 28 8.66319C27.9998 6.60816 25.9647 4.83693 23.0206 4ZM11.1055 5.17959C8.90671 5.80458 7.38788 7.1284 7.38772 8.66324C7.38762 10.1924 8.89615 11.5174 11.0817 12.1453C9.80546 11.3148 8.98719 10.0605 8.98719 8.66324C8.98719 7.25776 9.81628 6.0101 11.1056 5.17959H11.1055ZM20.8943 5.17959C22.1836 6.0101 23.0128 7.25776 23.0128 8.66324C23.0128 10.0605 22.1945 11.3148 20.9182 12.1453C23.1038 11.5174 24.6123 10.1924 24.6122 8.66324C24.612 7.1284 23.0932 5.80458 20.8943 5.17959ZM15.7644 5.52387C14.5733 5.67684 13.519 7.04118 13.519 8.79109C13.519 9.75596 13.8559 10.6106 14.3537 11.204L14.8726 11.8231L14.0759 11.9715C13.4243 12.0928 12.9445 12.4359 12.5399 12.9853C12.1355 13.5347 11.8291 14.2943 11.6149 15.1661C11.2225 16.764 11.1395 18.712 11.1278 20.4185H13.2429L13.2746 20.8559L13.8141 28H18.4015L18.8775 20.859L18.9077 20.4185H20.9197C20.9188 18.6927 20.9007 16.7178 20.5452 15.1077C20.3513 14.23 20.0571 13.4708 19.6471 12.9269C19.237 12.3829 18.7336 12.0421 18.0047 11.9304L17.1923 11.8056L17.7064 11.1677C18.1827 10.5773 18.5031 9.73252 18.5031 8.79109C18.5031 6.92541 17.3213 5.52847 16.0102 5.52847C15.8681 5.52847 15.7815 5.52155 15.7643 5.52377L15.7644 5.52387ZM13.1525 6.1381C11.5591 6.59108 10.4581 7.55101 10.4581 8.66324C10.4581 9.77127 11.5514 10.7318 13.1351 11.1867C12.2104 10.5849 11.6181 9.67582 11.6181 8.66324C11.6183 7.64485 12.2183 6.73995 13.1526 6.1381H13.1525ZM18.8474 6.1381C19.7816 6.73995 20.3817 7.6448 20.3819 8.66324C20.3819 9.67577 19.7896 10.5849 18.8649 11.1867C20.4486 10.7319 21.5419 9.77133 21.5419 8.66324C21.5418 7.55101 20.4407 6.59113 18.8474 6.1381Z" fill="white"/>
</svg>
