<svg width="32" height="32" viewBox="0 0 32 32" fill="none" xmlns="http://www.w3.org/2000/svg">
<path d="M0 4C0 1.79086 1.79086 0 4 0H28C30.2091 0 32 1.79086 32 4V28C32 30.2091 30.2091 32 28 32H4C1.79086 32 0 30.2091 0 28V4Z" fill="#545B65"/>
<path d="M24.1957 6.4C24.1957 7.03652 23.9297 7.64697 23.4563 8.09706C22.9829 8.54714 22.3408 8.8 21.6712 8.8C21.0017 8.8 20.3596 8.54714 19.8862 8.09706C19.4127 7.64697 19.1468 7.03652 19.1468 6.4C19.1468 5.76348 19.4127 5.15303 19.8862 4.70294C20.3596 4.25286 21.0017 4 21.6712 4C22.3408 4 22.9829 4.25286 23.4563 4.70294C23.9297 5.15303 24.1957 5.76348 24.1957 6.4ZM8.74599 11.792L11.6744 9.056L14.7879 11.12L13.5425 13.12C15.3511 13.6545 16.9433 14.7046 18.1033 16.128L19.5843 13.728C19.6764 13.5694 19.7346 13.3952 19.7557 13.2152C19.7768 13.0352 19.7602 12.853 19.7071 12.679C19.6539 12.5051 19.5652 12.3429 19.4459 12.2017C19.3266 12.0604 19.1792 11.943 19.0121 11.856L17.9687 11.264L12.0614 7.36C11.9006 7.25103 11.7045 7.19934 11.5076 7.21396C11.3107 7.22859 11.1255 7.30861 10.9843 7.44L7.61839 10.64C7.50095 10.7901 7.44256 10.9746 7.45337 11.1614C7.46418 11.3482 7.54351 11.5255 7.67756 11.6624C7.81161 11.7994 7.99191 11.8873 8.18711 11.911C8.38231 11.9347 8.58006 11.8926 8.74599 11.792ZM17.6826 21.504C17.6707 22.4765 17.4321 23.4344 16.984 24.3087C16.5358 25.183 15.8892 25.9519 15.0908 26.56C13.8929 27.4886 12.3954 27.9971 10.8497 28C9.03596 28 7.29626 27.3161 6.01217 26.0983C4.72809 24.8806 4.00446 23.2283 4 21.504C4.00391 20.0271 4.545 18.5969 5.53151 17.456C5.84605 17.085 6.2015 16.747 6.59178 16.448C7.79186 15.5101 9.2962 14.9957 10.8497 14.992C12.6634 14.9962 14.4014 15.6842 15.6823 16.905C16.9632 18.1257 17.6826 19.7797 17.6826 21.504ZM14.0978 23.536C14.6648 22.8307 14.9431 21.9537 14.8811 21.068C14.8191 20.1823 14.421 19.3481 13.7608 18.7204C13.1006 18.0927 12.2231 17.7143 11.2915 17.6553C10.3598 17.5964 9.43738 17.861 8.6955 18.4C8.25508 18.6416 7.88939 18.9893 7.63522 19.408C7.15065 20.1123 6.93585 20.9536 7.02691 21.7907C7.11797 22.6278 7.50935 23.4095 8.13527 24.0046C8.7612 24.5997 9.5835 24.9717 10.464 25.0583C11.3445 25.1449 12.2295 24.9407 12.9703 24.48C13.3915 24.218 13.7712 23.9001 14.0978 23.536ZM27.8982 25.136L23.7076 17.136C23.6095 16.9133 23.4429 16.7239 23.2297 16.5925C23.0166 16.4612 22.7667 16.3941 22.5127 16.4H18.3221C18.8775 17.1328 19.3083 17.9424 19.6012 18.8H21.7217L25.5757 26.128C25.6462 26.2754 25.7471 26.4078 25.8725 26.5174C25.9979 26.6269 26.1452 26.7113 26.3057 26.7656C26.4661 26.8199 26.6364 26.8429 26.8064 26.8333C26.9764 26.8236 27.1426 26.7816 27.2952 26.7096C27.4477 26.6376 27.5835 26.5372 27.6943 26.4143C27.8052 26.2914 27.8889 26.1486 27.9404 25.9943C27.992 25.84 28.0104 25.6774 27.9944 25.5162C27.9785 25.355 27.9286 25.1985 27.8477 25.056L27.8982 25.136Z" fill="white"/>
</svg>
