<svg width="16" height="13" viewBox="0 0 16 13" fill="none" xmlns="http://www.w3.org/2000/svg">
<path d="M14.6426 11.1378C13.5205 12.3736 11.8227 13 9.59698 13H8.79723V10.7096L9.44023 10.5787C10.5359 10.3561 11.298 9.91819 11.7059 9.2755C11.9187 8.92927 12.0394 8.53284 12.0562 8.125H9.59698C9.38488 8.125 9.18146 8.0394 9.03148 7.88702C8.88149 7.73465 8.79723 7.52799 8.79723 7.3125V1.625C8.79723 0.728812 9.51461 0 10.3967 0H15.1952C15.4073 0 15.6107 0.0856018 15.7607 0.237975C15.9107 0.390348 15.995 0.597012 15.995 0.8125V4.875L15.9926 7.24669C15.9998 7.33687 16.1517 9.47375 14.6426 11.1378ZM1.5995 0H6.39799C6.6101 0 6.81351 0.0856018 6.9635 0.237975C7.11348 0.390348 7.19774 0.597012 7.19774 0.8125V4.875L7.19534 7.24669C7.20254 7.33687 7.35449 9.47375 5.84536 11.1378C4.72332 12.3736 3.02545 13 0.799748 13H0V10.7096L0.642999 10.5787C1.73865 10.3561 2.50081 9.91819 2.90868 9.2755C3.1215 8.92927 3.24221 8.53284 3.25898 8.125H0.799748C0.587642 8.125 0.384222 8.0394 0.234241 7.88702C0.0842581 7.73465 0 7.52799 0 7.3125V1.625C0 0.728812 0.717375 0 1.5995 0Z" fill="white"/>
</svg>
