<svg width="16" height="13" viewBox="0 0 16 13" fill="none" xmlns="http://www.w3.org/2000/svg">
<path d="M1.3574 1.86225C2.47945 0.626437 4.17732 0 6.40302 0H7.20277V2.29044L6.55977 2.42125C5.46411 2.64388 4.70195 3.08181 4.29408 3.7245C4.08126 4.07073 3.96056 4.46716 3.94379 4.875H6.40302C6.61512 4.875 6.81854 4.9606 6.96852 5.11298C7.11851 5.26535 7.20277 5.47201 7.20277 5.6875V11.375C7.20277 12.2712 6.48539 13 5.60327 13H0.804777C0.592671 13 0.389252 12.9144 0.23927 12.762C0.0892876 12.6097 0.00502868 12.403 0.00502868 12.1875V8.125L0.00742795 5.75331C0.000230209 5.66313 -0.151722 3.52625 1.3574 1.86225ZM14.4005 13H9.60201C9.3899 13 9.18649 12.9144 9.0365 12.762C8.88652 12.6097 8.80226 12.403 8.80226 12.1875V8.125L8.80466 5.75331C8.79746 5.66313 8.64551 3.52625 10.1546 1.86225C11.2767 0.626437 12.9746 0 15.2003 0H16V2.29044L15.357 2.42125C14.2613 2.64388 13.4992 3.08181 13.0913 3.7245C12.8785 4.07073 12.7578 4.46716 12.741 4.875H15.2003C15.4124 4.875 15.6158 4.9606 15.7658 5.11298C15.9157 5.26535 16 5.47201 16 5.6875V11.375C16 12.2712 15.2826 13 14.4005 13Z" fill="white"/>
</svg>
