<svg width="126" height="196" viewBox="0 0 126 196" fill="none" xmlns="http://www.w3.org/2000/svg">
<path d="M32 38C46.1667 39.5 82 46.1 112 60.5C70.4 63.7 41.3333 46.8333 32 38Z" fill="#A6A6A6"/>
<path d="M102.069 59.9168C101.411 49.2801 104.262 30.7482 115.776 30.3096C118.079 36.3407 103.056 38.7531 102.069 59.9168Z" stroke="#B9B9B9" stroke-width="0.5"/>
<path d="M132.444 46.1001C130.251 41.4945 114.241 46.6484 105.249 60.3554H106.236C114.351 52.3505 132.992 51.6925 132.444 46.1001Z" stroke="#B9B9B9" stroke-width="0.5"/>
<path d="M120.183 158.902C103.406 136.094 99.3487 119.098 36.1866 181.492L24.3438 194.87H122.157C122.157 194.87 126.059 196.782 128.737 194.87C138.825 187.666 120.183 158.902 120.183 158.902Z" fill="#B9B9B9"/>
<path d="M68.1503 44.2447C65.4089 42.4536 59.3778 39.2003 57.1847 40.5163C54.9916 41.8322 63.5813 43.5502 68.1503 44.2447Z" fill="#D9D9D9"/>
<path d="M68.1503 49.1792C65.4089 47.3881 59.3778 44.1348 57.1847 45.4508C54.9916 46.7668 63.5813 48.4847 68.1503 49.1792Z" fill="#D9D9D9"/>
<path d="M68.1503 40.5163C65.4089 38.7251 59.3778 35.4719 57.1847 36.7878C54.9916 38.1038 63.5813 39.8218 68.1503 40.5163Z" fill="#D9D9D9"/>
<path d="M67.0538 35.9108C64.3123 34.1197 58.2812 30.8664 56.0881 32.1824C53.895 33.4983 62.4847 35.2163 67.0538 35.9108Z" fill="#D9D9D9"/>
<path d="M65.8475 31.5245C63.1061 29.7334 57.075 26.4802 54.8819 27.7961C52.6888 29.1121 61.2785 30.83 65.8475 31.5245Z" fill="#D9D9D9"/>
<path d="M64.8606 27.7961C62.1192 26.005 56.0881 22.7517 53.895 24.0677C51.7019 25.3836 60.2916 27.1016 64.8606 27.7961Z" fill="#D9D9D9"/>
<path d="M63.4351 23.7389C60.6937 21.9478 54.6626 18.6945 52.4695 20.0105C50.2763 21.3264 58.8661 23.0444 63.4351 23.7389Z" fill="#D9D9D9"/>
<path d="M62.0096 20.0094C59.2682 18.2183 53.2371 14.965 51.0439 16.281C48.8508 17.5969 57.4406 19.3149 62.0096 20.0094Z" fill="#D9D9D9"/>
<path d="M61.1323 17.483C58.3909 15.6918 52.7984 11.4517 50.6053 12.7677C48.4122 14.0836 56.7461 16.4961 61.1323 17.483Z" fill="#D9D9D9"/>
<path d="M59.4875 14.0421C58.1504 12.7277 52.3386 6.91499 50.057 7.57285C47.5995 8.28144 55.3205 12.3973 59.4875 14.0421Z" fill="#D9D9D9"/>
<path d="M68.6986 50.2693C70.8552 46.6121 75.4534 39.5839 76.5939 40.7292C77.7343 41.8746 71.8055 47.5665 68.6986 50.2693Z" fill="#D9D9D9"/>
<path d="M68.4793 55.6425C70.6359 51.9852 75.2341 44.957 76.3745 46.1024C77.515 47.2478 71.5862 52.9397 68.4793 55.6425Z" fill="#D9D9D9"/>
<path d="M68.4793 40.0713C70.6359 36.414 74.6858 30.0438 75.8263 31.1891C76.9667 32.3345 71.5862 37.3685 68.4793 40.0713Z" fill="#D9D9D9"/>
<path d="M67.602 35.9108C69.7586 32.2535 73.9182 25.6575 75.0587 26.8029C76.1991 27.9483 70.709 33.208 67.602 35.9108Z" fill="#D9D9D9"/>
<path d="M66.7248 31.6278C68.8814 27.9705 73.1506 21.2713 74.2911 22.4167C75.4315 23.562 69.8317 28.925 66.7248 31.6278Z" fill="#D9D9D9"/>
<path d="M65.5186 27.5705C67.6751 23.9132 71.1768 16.9947 72.3173 18.14C73.4577 19.2854 68.6255 24.8677 65.5186 27.5705Z" fill="#D9D9D9"/>
<path d="M64.2027 23.5822C66.3593 19.925 69.203 12.6084 70.3434 13.7538C71.4839 14.8992 67.3096 20.8794 64.2027 23.5822Z" fill="#D9D9D9"/>
<path d="M62.7772 19.5656C64.9337 15.9083 67.3389 8.98973 68.4793 10.1351C69.6197 11.2805 65.8841 16.8628 62.7772 19.5656Z" fill="#D9D9D9"/>
<path d="M61.6806 17.1127C62.7772 12.9861 63.5009 4.82277 64.6413 5.96816C65.7817 7.11354 64.6413 14.0421 61.6806 17.1127Z" fill="#D9D9D9"/>
<path d="M59.9261 13.7532C59.7068 9.36682 59.4436 1.4228 60.584 2.56818C61.7245 3.71357 61.6806 10.6827 59.9261 13.7532Z" fill="#D9D9D9"/>
<path d="M20.2865 16.8304C30.7038 29.9893 44.6521 26.9408 45.1784 45.4508C23.0717 36.0641 19.7382 25.4934 20.2865 16.8304Z" fill="#D9D9D9"/>
<path d="M68.6986 44.8962C70.8552 41.2389 75.4534 34.2107 76.5939 35.3561C77.7343 36.5015 71.8055 42.1934 68.6986 44.8962Z" fill="#D9D9D9"/>
<path d="M113.658 10.4634C124.514 32.614 96.8803 46.9789 97.8672 59.0411C83.3925 40.8389 110.368 24.3897 113.658 10.4634Z" fill="#D9D9D9"/>
<path d="M97.7148 59.2585C91.6838 36.45 116.905 26.9099 113.944 11.229C113.944 29.7609 89.6004 35.792 97.7148 59.2585Z" fill="#B9B9B9"/>
<path d="M86.524 49.4993C90.2523 48.22 97.9064 46.2096 98.2573 47.9641C98.4546 48.951 90.5448 49.682 86.524 49.4993Z" fill="#999999"/>
<path d="M87.6206 44.5647C91.3489 43.2854 99.0029 41.2751 99.3538 43.0296C99.5512 44.0165 91.6413 44.7475 87.6206 44.5647Z" fill="#999999"/>
<path d="M88.9365 40.9461C92.6648 39.6668 100.319 37.6564 100.67 39.4109C100.867 40.3978 92.9572 41.1288 88.9365 40.9461Z" fill="#999999"/>
<path d="M90.4717 36.5598C94.2 35.2805 101.854 33.2701 102.205 35.0246C102.402 36.0116 94.4924 36.7426 90.4717 36.5598Z" fill="#999999"/>
<path d="M92.0068 32.5026C95.7352 31.2232 103.389 29.2129 103.74 30.9674C103.937 31.9543 96.0276 32.6853 92.0068 32.5026Z" fill="#999999"/>
<path d="M93.871 28.8839C97.5993 27.6046 105.253 25.5942 105.604 27.3487C105.802 28.3356 97.8917 29.0667 93.871 28.8839Z" fill="#999999"/>
<path d="M95.7352 25.3749C99.4635 24.0956 107.117 22.0852 107.468 23.8397C107.666 24.8266 99.7559 25.5577 95.7352 25.3749Z" fill="#999999"/>
<path d="M98.0379 21.8659C101.766 20.5866 109.42 18.5762 109.771 20.3307C109.969 21.3176 102.059 22.0487 98.0379 21.8659Z" fill="#999999"/>
<path d="M99.2442 19.5631C102.753 18.0279 110.188 15.3962 110.539 17.1507C110.736 18.1376 103.192 19.2341 99.2442 19.5631Z" fill="#999999"/>
<path d="M101.328 16.4927C104.508 14.2996 111.504 10.4616 111.855 12.2161C112.052 13.203 104.946 15.5058 101.328 16.4927Z" fill="#999999"/>
<path d="M85.0985 55.4207C82.1378 52.0214 77.9708 46.1365 79.0674 45.2227C79.8569 44.5647 83.4537 51.0345 85.0985 55.4207Z" fill="#999999"/>
<path d="M85.8661 49.8282C82.9054 46.4289 78.7384 40.544 79.835 39.6302C80.6245 38.9723 84.2212 45.442 85.8661 49.8282Z" fill="#999999"/>
<path d="M86.7433 44.8937C83.7826 41.4944 79.7253 35.2805 80.8219 34.3667C81.6114 33.7088 85.0985 40.5075 86.7433 44.8937Z" fill="#999999"/>
<path d="M88.0592 40.5075C85.0985 37.1081 81.0206 30.5913 82.3571 30.0901C83.2343 29.7611 86.4144 36.1212 88.0592 40.5075Z" fill="#999999"/>
<path d="M89.5944 36.5598C86.6337 33.1605 82.7957 27.2756 83.8923 26.3618C84.6818 25.7039 87.9496 32.1736 89.5944 36.5598Z" fill="#999999"/>
<path d="M91.2393 32.5026C88.2785 29.1032 84.1116 23.2183 85.2082 22.3045C85.9977 21.6466 89.5944 28.1163 91.2393 32.5026Z" fill="#999999"/>
<path d="M92.9938 28.5549C90.033 25.1556 87.182 18.9417 88.2785 18.0279C89.0681 17.37 91.3489 24.1687 92.9938 28.5549Z" fill="#999999"/>
<path d="M94.9676 24.9363C92.2262 21.208 90.1427 15.3231 91.2393 14.4093C92.0288 13.7513 93.871 20.3307 94.9676 24.9363Z" fill="#999999"/>
<path d="M97.2703 21.4273C94.3096 18.0279 91.9974 11.3207 93.3227 10.7906C94.4193 10.352 95.9545 16.9314 97.2703 21.4273Z" fill="#999999"/>
<path d="M98.6959 19.1245C97.051 15.5058 96.6105 7.61057 98.0379 7.61057C99.0248 7.61057 98.9152 14.8479 98.6959 19.1245Z" fill="#999999"/>
<path d="M100.779 16.4927C100.121 12.6548 101.106 4.86916 102.534 4.86916C103.63 4.86916 102.205 12.2161 100.779 16.4927Z" fill="#999999"/>
<path d="M85.5371 54.9821C89.2654 53.7028 96.8098 51.5827 97.1607 53.3372C97.5116 55.0918 89.5579 55.1649 85.5371 54.9821Z" fill="#999999"/>
<path d="M34.8759 0.48291C40.249 16.712 64.5927 29.6515 50.5567 49.3896C50.5568 35.4633 24.5682 23.73 34.8759 0.48291Z" fill="#999999"/>
<path d="M70.2064 8.15863C69.0002 37.3272 79.9658 47.1963 78.5403 56.4074C79.1982 45.5514 61.4339 36.121 70.2064 8.15863Z" fill="#D9D9D9"/>
<path d="M83.8038 3.77238C68.7809 28.445 81.0624 46.8673 81.0624 56.9557C81.5138 43.5651 77.1143 40.8608 81.2817 17.4794C81.974 13.5953 83.3652 9.36485 83.8038 3.77238Z" fill="#D9D9D9"/>
<path d="M83.8038 43.139C83.8038 32.283 94.7695 16.3829 92.028 1.14062C88.4468 25.265 81.5837 15.9442 83.3652 52.5694C83.4749 54.2143 83.1459 56.0784 83.2555 57.504C84.0451 55.3986 83.8038 48.5121 83.8038 43.139Z" fill="#D9D9D9"/>
<path d="M131.395 35.0244C132.82 43.0293 110.341 43.2486 103.652 58.7102C102.915 60.2015 102.467 59.8433 102.336 59.4778C103.652 44.1259 125.912 28.5547 131.395 35.0244Z" fill="#D9D9D9"/>
<path d="M106.174 60.7937C118.346 60.2454 124.925 65.0703 126.131 59.2585C126.241 54.7626 111.657 56.5171 106.174 60.7937Z" fill="#D9D9D9"/>
<path d="M120.622 31.2961C120.622 32.0761 120.003 32.7072 119.223 32.7216C118.428 32.7364 117.771 32.0907 117.771 31.2961C117.771 30.5015 118.428 29.8558 119.223 29.8706C120.003 29.885 120.622 30.5161 120.622 31.2961Z" fill="#D9D9D9"/>
<path d="M78.0753 6.84269C78.0753 8.28251 76.9321 9.4473 75.4923 9.47398C74.0255 9.50117 72.8118 8.30944 72.8118 6.84269C72.8118 5.37593 74.0255 4.18421 75.4923 4.21139C76.9321 4.23808 78.0753 5.40287 78.0753 6.84269Z" stroke="#D9D9D9"/>
<path d="M16.6678 32.7221C16.6678 34.1619 15.5247 35.3267 14.0848 35.3534C12.6181 35.3806 11.4043 34.1888 11.4043 32.7221C11.4043 31.2553 12.6181 30.0636 14.0848 30.0908C15.5247 30.1175 16.6678 31.2823 16.6678 32.7221Z" stroke="#999999"/>
<path d="M23.2472 36.7793C23.2472 37.5593 22.628 38.1904 21.8481 38.2048C21.0536 38.2196 20.3961 37.5739 20.3961 36.7793C20.3961 35.9847 21.0536 35.339 21.8481 35.3538C22.628 35.3682 23.2472 35.9993 23.2472 36.7793Z" fill="#D9D9D9"/>
<path d="M69.8511 1.42578C69.8511 2.20582 69.2319 2.83685 68.452 2.85131C67.6575 2.86604 67 2.22041 67 1.42578C67 0.631149 67.6575 -0.0144821 68.452 0.000247112C69.2319 0.0147058 69.8511 0.645742 69.8511 1.42578Z" fill="#999999"/>
<path d="M21.9313 20.527C24.6563 31.0693 41.41 31.9644 43.9331 45.8882C38.584 31.0693 24.0507 31.7655 21.9313 20.527Z" fill="#B9B9B9"/>
<path d="M36.1618 6.4043C36.1618 23.5107 57.2553 28.6824 51.7044 49.1703C54.8331 26.196 34.4461 23.3118 36.1618 6.4043Z" fill="#B9B9B9"/>
<path d="M68.3159 54.5431C70.3993 40.507 61.9558 19.1972 57.6792 10.3516C62.2117 17.333 70.509 36.8884 68.9738 54.5431H68.3159Z" fill="#B9B9B9"/>
<path d="M103.756 13.2026C98.2731 20.1475 86.825 38.7526 84.895 57.6134C84.2809 40.5948 97.2131 20.9151 103.756 13.2026Z" fill="#B9B9B9"/>
<path d="M31.8911 38.2046C20.0482 42.9417 21.1814 51.5827 23.2283 55.311L45.7078 68.4697L50.5327 86.7823L68.4067 105.424C76.0826 132.18 99.0008 131.632 94.1759 122.969C94.6145 123.408 95.8427 124.241 97.2463 124.065C92.6407 111.345 113.914 102.354 112.708 78.1195C118.849 87.4403 116.107 64.9607 112.16 60.5745C64.6126 56.1005 38.836 43.7971 31.8911 38.2046Z" fill="#B9B9B9"/>
<path d="M15.2422 79.8741L0 93.1425C3.1581 99.985 9.57665 102.5 12.3912 102.902L12.9394 113.868C16.5581 115.403 21.6242 118.341 12.9394 117.815C12.9394 144.791 26.5334 138.431 42.9853 136.128C43.0577 136.091 43.1331 136.055 43.2046 136.018L57.5696 160.691C79.8517 140.777 94.7796 137.773 99.4583 138.76L93.0982 127.684C82.1326 129.877 74.6394 112.442 72.2635 103.45C90.1375 104.766 91.1244 78.1196 78.8429 76.0361C69.0177 74.3693 66.1227 86.6728 65.9034 93.0328L58.7758 92.5942C58.6881 87.4184 59.1779 81.2265 59.4337 78.7775C52.8543 77.9003 51.4288 70.3705 51.5385 66.7153C42.766 66.803 40.719 59.9532 40.7921 56.5173C32.8969 59.7631 27.9989 54.1414 26.5368 50.9248C19.5188 57.1533 16.0829 72.8195 15.2422 79.8741Z" fill="#DCDCDC"/>
<path d="M43.095 99.7219C43.095 103.56 38.5991 104.656 33.5549 104.656C28.4072 104.656 24.3438 101.018 24.3438 97.7481C24.3438 94.4778 28.4072 92.5942 33.5549 92.5942C40.1343 93.0329 43.095 95.8839 43.095 99.7219Z" fill="#B9B9B9"/>
<path d="M16.1195 101.425C16.5581 100.986 16.3023 97.8792 16.1195 96.3805C17.7863 98.5737 17.2526 101.461 16.7775 102.631L11.4043 100.109C13.5097 100.197 15.425 101.023 16.1195 101.425Z" fill="#B9B9B9"/>
<path d="M32.3487 82.0156C23.6858 88.3756 19.6285 85.7439 18.6416 84.8666C18.9048 84.5157 20.2134 84.2087 20.8347 84.099L23.1375 75.7652L21.8216 83.7701C22.772 83.697 24.892 83.5946 25.7693 83.7701C26.6465 83.9455 30.521 82.6735 32.3487 82.0156Z" fill="#B9B9B9"/>
<path d="M17.7644 66.3347L19.4092 61.7292C24.8555 61.2174 36.5595 63.8565 39.8053 78.5066C34.0154 66.7514 22.6989 65.494 17.7644 66.3347Z" fill="#B9B9B9"/>
<path d="M46.9329 142.436L43.3143 135.857C46.8233 134.249 55.5739 128.773 62.5041 119.737C60.1356 127.72 51.1364 138.196 46.9329 142.436Z" fill="#B9B9B9"/>
<path d="M74.676 95.1743C74.5883 96.8411 72.3001 98.6468 71.167 99.3413C76.2112 96.4902 75.6629 95.7226 75.5532 94.7357C75.4655 93.9462 72.8118 91.6288 71.496 90.5688C74.1277 75.3046 81.4747 78.7259 83.9968 83.7701C79.3912 71.9272 69.9608 81.3576 69.9608 91.117C73.2066 93.6611 74.4567 94.8819 74.676 95.1743Z" fill="#B9B9B9"/>
</svg>
