<svg width="14" height="16" viewBox="0 0 14 16" fill="none" xmlns="http://www.w3.org/2000/svg">
<path d="M13.0341 1.66019L3.53767 0.0173C3.23303 -0.035222 2.91956 0.0329465 2.66621 0.206815C2.41286 0.380683 2.24037 0.646015 2.18666 0.944462L0.0176097 13.0161C-0.00891988 13.164 -0.0054444 13.3156 0.0278375 13.4622C0.0611194 13.6087 0.123555 13.7474 0.211577 13.8703C0.299599 13.9933 0.411482 14.098 0.540832 14.1785C0.670182 14.2591 0.814463 14.3138 0.96543 14.3397L10.4619 15.9826C10.6129 16.0087 10.7676 16.0054 10.9173 15.9728C11.067 15.9403 11.2087 15.8791 11.3342 15.7929C11.4598 15.7066 11.5667 15.597 11.649 15.4702C11.7312 15.3434 11.7872 15.202 11.8136 15.054L13.9827 2.98236C14.0358 2.6838 13.9657 2.37679 13.7878 2.12884C13.61 1.8809 13.3388 1.71232 13.0341 1.66019ZM10.6631 14.8569L1.16593 13.214L3.33498 1.14232L12.8314 2.78521L10.6631 14.8569ZM4.18 3.0295C4.20702 2.88034 4.29339 2.74779 4.42013 2.66099C4.54687 2.5742 4.7036 2.54026 4.85587 2.56664L10.9073 3.61309C11.0512 3.63777 11.1803 3.7144 11.2692 3.82784C11.3582 3.94128 11.4005 4.08328 11.3877 4.22578C11.375 4.36829 11.3082 4.50093 11.2005 4.59751C11.0928 4.69408 10.952 4.74757 10.806 4.7474C10.7718 4.74735 10.7376 4.74448 10.7039 4.73882L4.65245 3.69166C4.5002 3.66519 4.3649 3.58057 4.27631 3.4564C4.18772 3.33224 4.15307 3.17869 4.18 3.0295ZM3.77608 5.28098C3.78938 5.20706 3.81741 5.13642 3.85857 5.07311C3.89973 5.0098 3.95323 4.95506 4.01599 4.91201C4.07875 4.86896 4.14956 4.83845 4.22436 4.82221C4.29917 4.80598 4.3765 4.80434 4.45195 4.8174L10.5034 5.86456C10.6483 5.88829 10.7786 5.96467 10.8685 6.07845C10.9584 6.19222 11.0011 6.33502 10.9882 6.47833C10.9753 6.62163 10.9078 6.75491 10.799 6.85153C10.6902 6.94816 10.5482 7.00103 10.4014 6.99959C10.3669 6.99965 10.3324 6.99654 10.2985 6.9903L4.24708 5.94385C4.09494 5.91706 3.95988 5.83219 3.87157 5.7079C3.78326 5.58361 3.74891 5.43006 3.77608 5.28098ZM3.37144 7.53174C3.39896 7.38297 3.48555 7.25095 3.61223 7.16459C3.73891 7.07824 3.89535 7.04459 4.04731 7.07102L7.07158 7.59174C7.21534 7.61641 7.34443 7.69299 7.43338 7.80635C7.52232 7.91972 7.56466 8.06163 7.55202 8.20408C7.53939 8.34653 7.4727 8.47916 7.36513 8.5758C7.25756 8.67243 7.11692 8.72604 6.97097 8.72605C6.93676 8.72603 6.90261 8.72317 6.8689 8.71748L3.84316 8.1939C3.69104 8.16726 3.55592 8.08257 3.46748 7.95842C3.37904 7.83428 3.34449 7.68082 3.37144 7.53174Z" fill="white"/>
</svg>
