<svg width="34" height="37" viewBox="0 0 34 37" fill="none" xmlns="http://www.w3.org/2000/svg">
<g filter="url(#filter0_d_56_165)">
<path d="M5 16C5 17.5759 5.31039 19.1363 5.91345 20.5922C6.5165 22.0481 7.40042 23.371 8.51472 24.4853C9.62902 25.5996 10.9519 26.4835 12.4078 27.0866C13.8637 27.6896 15.4241 28 17 28C18.5759 28 20.1363 27.6896 21.5922 27.0866C23.0481 26.4835 24.371 25.5996 25.4853 24.4853C26.5996 23.371 27.4835 22.0481 28.0866 20.5922C28.6896 19.1363 29 17.5759 29 16C29 14.4241 28.6896 12.8637 28.0866 11.4078C27.4835 9.95189 26.5996 8.62902 25.4853 7.51472C24.371 6.40042 23.0481 5.5165 21.5922 4.91345C20.1363 4.31039 18.5759 4 17 4C15.4241 4 13.8637 4.31039 12.4078 4.91345C10.9519 5.5165 9.62902 6.40042 8.51472 7.51472C7.40042 8.62902 6.5165 9.95189 5.91345 11.4078C5.31039 12.8637 5 14.4241 5 16ZM13 12H13.0133H13ZM21 12H21.0133H21Z" fill="#00BA56"/>
<path d="M13 12H13.0133M21 12H21.0133M5 16C5 17.5759 5.31039 19.1363 5.91345 20.5922C6.5165 22.0481 7.40042 23.371 8.51472 24.4853C9.62902 25.5996 10.9519 26.4835 12.4078 27.0866C13.8637 27.6896 15.4241 28 17 28C18.5759 28 20.1363 27.6896 21.5922 27.0866C23.0481 26.4835 24.371 25.5996 25.4853 24.4853C26.5996 23.371 27.4835 22.0481 28.0866 20.5922C28.6896 19.1363 29 17.5759 29 16C29 14.4241 28.6896 12.8637 28.0866 11.4078C27.4835 9.95189 26.5996 8.62902 25.4853 7.51472C24.371 6.40042 23.0481 5.5165 21.5922 4.91345C20.1363 4.31039 18.5759 4 17 4C15.4241 4 13.8637 4.31039 12.4078 4.91345C10.9519 5.5165 9.62902 6.40042 8.51472 7.51472C7.40042 8.62902 6.5165 9.95189 5.91345 11.4078C5.31039 12.8637 5 14.4241 5 16Z" stroke="black" stroke-width="2" stroke-linecap="round" stroke-linejoin="round"/>
<path d="M11.666 17.3335C11.666 18.748 12.2279 20.1045 13.2281 21.1047C14.2283 22.1049 15.5849 22.6668 16.9993 22.6668C18.4138 22.6668 19.7704 22.1049 20.7706 21.1047C21.7708 20.1045 22.3327 18.748 22.3327 17.3335H11.666Z" stroke="black" stroke-width="2" stroke-linecap="round" stroke-linejoin="round"/>
</g>
<defs>
<filter id="filter0_d_56_165" x="-3" y="0" width="40" height="40" filterUnits="userSpaceOnUse" color-interpolation-filters="sRGB">
<feFlood flood-opacity="0" result="BackgroundImageFix"/>
<feColorMatrix in="SourceAlpha" type="matrix" values="0 0 0 0 0 0 0 0 0 0 0 0 0 0 0 0 0 0 127 0" result="hardAlpha"/>
<feOffset dy="4"/>
<feGaussianBlur stdDeviation="2"/>
<feComposite in2="hardAlpha" operator="out"/>
<feColorMatrix type="matrix" values="0 0 0 0 0 0 0 0 0 0 0 0 0 0 0 0 0 0 0.25 0"/>
<feBlend mode="normal" in2="BackgroundImageFix" result="effect1_dropShadow_56_165"/>
<feBlend mode="normal" in="SourceGraphic" in2="effect1_dropShadow_56_165" result="shape"/>
</filter>
</defs>
</svg>
